SplineFontDB: 3.2
FontName: RegularDraconic
FullName: Draconic
FamilyName: Draconic
Weight: Book
Copyright: Licensed under CC BY-NC-SA 4.0: https://creativecommons.org/licenses/by-nc-sa/4.0/
Version: 1.12
ItalicAngle: 0
UnderlinePosition: -112.64
UnderlineWidth: 0
Ascent: 1024
Descent: 0
InvalidEm: 0
sfntRevision: 0x0001e666
LayerCount: 2
Layer: 0 1 "Back" 1
Layer: 1 1 "Fore" 0
XUID: [1021 787 -1287949227 6365115]
StyleMap: 0x0040
FSType: 8
OS2Version: 3
OS2_WeightWidthSlopeOnly: 0
OS2_UseTypoMetrics: 0
CreationTime: 869239855
ModificationTime: 1762103199
PfmFamily: 17
TTFWeight: 400
TTFWidth: 5
LineGap: 0
VLineGap: 0
Panose: 2 11 5 2 4 2 4 2 2 3
OS2TypoAscent: 745
OS2TypoAOffset: 0
OS2TypoDescent: -215
OS2TypoDOffset: 0
OS2TypoLinegap: 134
OS2WinAscent: 1105
OS2WinAOffset: 0
OS2WinDescent: 257
OS2WinDOffset: 0
HheadAscent: 1105
HheadAOffset: 0
HheadDescent: -257
HheadDOffset: 0
OS2SubXSize: 717
OS2SubYSize: 666
OS2SubXOff: 0
OS2SubYOff: 141
OS2SupXSize: 717
OS2SupYSize: 666
OS2SupXOff: 0
OS2SupYOff: 488
OS2StrikeYSize: 51
OS2StrikeYPos: 265
OS2CapHeight: 717
OS2XHeight: 512
OS2FamilyClass: 2053
OS2Vendor: 'MS  '
OS2CodePages: 200001ff.00000000
OS2UnicodeRanges: e4002eff.c000e47f.00000009.00000000
Lookup: 6 9 0 "'isol' Isolated Forms in Arabic lookup 0" { "'isol' Isolated Forms in Arabic lookup 0 contextual 0"  "'isol' Isolated Forms in Arabic lookup 0 contextual 1"  } ['isol' ('arab' <'ARA ' > ) ]
Lookup: 6 9 0 "'ccmp' Glyph Composition/Decomposition in Arabic lookup 1" { "'ccmp' Glyph Composition/Decomposition in Arabic lookup 1 contextual 0"  "'ccmp' Glyph Composition/Decomposition in Arabic lookup 1 contextual 1"  "'ccmp' Glyph Composition/Decomposition in Arabic lookup 1 contextual 2"  } ['ccmp' ('arab' <'ARA ' 'MLY ' 'MOR ' 'SND ' 'URD ' 'dflt' > ) ]

StartChar: uniE000
Encoding: 57344 57344 4
Width: 362
GlyphClass: 2
Flags: W
LayerCount: 2
Fore
SplineSet
25 92 m 1,0,1
 32 94 32 94 39 94 c 0,2,3
 61 94 61 94 84 77 c 256,4,5
 107 60 107 60 127 33 c 1,6,7
 131 36 131 36 153 49 c 0,8,9
 166 56 166 56 195 73 c 0,10,11
 197 74 197 74 199 75.5 c 128,-1,12
 201 77 201 77 203.5 79 c 128,-1,13
 206 81 206 81 208 82 c 1,14,15
 197 92 197 92 187 102 c 0,16,17
 161 129 161 129 141 158 c 0,18,19
 121 189 121 189 110 216 c 0,20,21
 107 223 107 223 104 231 c 0,22,23
 98 251 98 251 98 270 c 2,24,-1
 98 282 l 2,25,26
 98 310 98 310 100 340 c 0,27,28
 104 374 104 374 114 402 c 0,29,30
 123 433 123 433 138 454 c 0,31,32
 153 476 153 476 176 488 c 0,33,34
 198 499 198 499 227 500 c 2,35,-1
 230 500 l 2,36,37
 255 500 255 500 274 488.5 c 128,-1,38
 293 477 293 477 310 456 c 0,39,40
 347 412 347 412 352 317 c 0,41,42
 352 301 352 301 353 293 c 0,43,44
 353 259 353 259 345 232 c 0,45,46
 334 187 334 187 307 146 c 0,47,48
 282 106 282 106 249 72 c 2,49,-1
 248 72 l 1,50,51
 257 65 257 65 268 56 c 0,52,53
 309 27 309 27 350 19 c 1,54,55
 344 18 344 18 338 18 c 0,56,57
 320 18 320 18 297 26 c 0,58,59
 269 36 269 36 240 55 c 0,60,61
 237 58 237 58 234 59 c 0,62,63
 208 35 208 35 177 19 c 0,64,65
 139 0 139 0 104 0 c 2,66,-1
 103 0 l 1,67,68
 102 11 102 11 97 22 c 256,69,70
 93 32 93 32 85 45 c 0,71,72
 77 57 77 57 60 70 c 0,73,74
 47 82 47 82 25 92 c 1,0,1
223 94 m 0,75,76
 224 95 224 95 226.5 97 c 128,-1,77
 229 99 229 99 230.5 100.5 c 128,-1,78
 232 102 232 102 234 104 c 0,79,80
 256 123 256 123 271 147 c 0,81,82
 285 170 285 170 298 208 c 256,83,84
 310 246 310 246 312 291 c 0,85,86
 312 300 312 300 313 317 c 0,87,88
 313 376 313 376 295 413 c 0,89,90
 272 458 272 458 229 463 c 0,91,92
 226 463 226 463 221 463 c 0,93,94
 196 463 196 463 178 444 c 0,95,96
 156 421 156 421 144 382 c 0,97,98
 133 341 133 341 131 291 c 0,99,100
 131 290 131 290 130.5 287.5 c 128,-1,101
 130 285 130 285 130 284 c 0,102,103
 130 248 130 248 147 208 c 0,104,105
 165 163 165 163 197 124 c 0,106,107
 211 106 211 106 223 94 c 0,75,76
EndSplineSet
EndChar

StartChar: uniE001
Encoding: 57345 57345 5
Width: 392
GlyphClass: 2
Flags: W
LayerCount: 2
Fore
SplineSet
25 369 m 1,0,1
 38 376 38 376 60 378 c 2,2,-1
 66 378 l 2,3,4
 78 378 78 378 89 375 c 1,5,6
 92 384 92 384 94 389 c 0,7,8
 104 413 104 413 128 434 c 0,9,10
 150 456 150 456 180 473 c 128,-1,11
 210 490 210 490 241 500 c 1,12,13
 236 496 236 496 212 478 c 0,14,15
 190 463 190 463 180 454 c 0,16,17
 163 439 163 439 153 428 c 0,18,19
 134 410 134 410 120 391 c 0,20,21
 112 380 112 380 105 370 c 2,22,-1
 89 343 l 1,23,24
 69 365 69 365 25 369 c 1,0,1
265 496 m 1,25,26
 260 493 260 493 250 483 c 0,27,28
 241 475 241 475 215 450 c 0,29,30
 195 428 195 428 173 396 c 0,31,32
 154 367 154 367 139 339 c 0,33,34
 137 334 137 334 134 329 c 0,35,36
 115 292 115 292 104 248 c 0,37,38
 95 209 95 209 94 168 c 2,39,-1
 94 159 l 2,40,41
 95 126 95 126 104 101 c 0,42,43
 112 76 112 76 129 58 c 0,44,45
 146 39 146 39 175 32 c 0,46,47
 191 28 191 28 209 28 c 0,48,49
 225 28 225 28 245 32 c 0,50,51
 265 35 265 35 278 49 c 0,52,53
 291 64 291 64 294 85 c 0,54,55
 295 94 295 94 295 102 c 0,56,57
 295 114 295 114 293 127 c 0,58,59
 290 149 290 149 275 170 c 0,60,61
 270 179 270 179 262 185 c 0,62,63
 262 185 262 185 262 185.5 c 128,-1,64
 262 186 262 186 262 186 c 1,65,-1
 262 186 l 1,66,67
 253 195 253 195 241 202 c 1,68,69
 243 202 243 202 246 203 c 0,70,71
 258 203 258 203 271 195 c 1,72,73
 297 190 297 190 318 189 c 0,74,75
 352 189 352 189 383 200 c 1,76,77
 382 200 382 200 370 195 c 0,78,79
 361 190 361 190 354 187 c 0,80,81
 348 185 348 185 336 181 c 256,82,83
 324 178 324 178 313 178 c 0,84,85
 313 178 313 178 310.5 177.5 c 128,-1,86
 308 177 308 177 307 177 c 0,87,88
 302 177 302 177 290 179 c 2,89,-1
 288 179 l 1,90,91
 303 163 303 163 311 140 c 0,92,93
 319 117 319 117 319 92 c 2,94,-1
 319 86 l 1,95,96
 317 57 317 57 302 43 c 0,97,98
 253 0 253 0 201 0 c 0,99,100
 153 0 153 0 114 35 c 0,101,102
 91 57 91 57 78 88 c 0,103,104
 65 120 65 120 65 161 c 0,105,106
 65 233 65 233 95 304 c 0,107,108
 127 378 127 378 180 431 c 0,109,110
 229 480 229 480 265 496 c 1,25,26
EndSplineSet
EndChar

StartChar: uniE002
Encoding: 57346 57346 6
Width: 297
GlyphClass: 2
Flags: W
LayerCount: 2
Fore
SplineSet
288 437 m 1,0,1
 246 437 246 437 212 426 c 0,2,3
 185 418 185 418 163 403 c 1,4,-1
 163 396 l 1,5,-1
 163 390 l 2,6,7
 163 388 163 388 163 385 c 128,-1,8
 163 382 163 382 163 380 c 1,9,10
 172 390 172 390 186 398 c 0,11,12
 203 407 203 407 228 413 c 0,13,14
 254 419 254 419 288 420 c 1,15,-1
 288 394 l 1,16,17
 285 394 285 394 279 394 c 0,18,19
 240 394 240 394 210 377 c 0,20,21
 176 358 176 358 146 321 c 1,22,23
 140 356 140 356 139 384 c 2,24,-1
 139 385 l 1,25,26
 121 370 121 370 106 351 c 0,27,28
 87 327 87 327 75 299 c 0,29,30
 64 273 64 273 58 244 c 0,31,32
 53 218 53 218 53 194 c 2,33,-1
 53 190 l 2,34,35
 53 152 53 152 67 110 c 0,36,37
 79 68 79 68 100 38 c 0,38,39
 120 7 120 7 139 0 c 1,40,41
 130 0 130 0 115 11 c 0,42,43
 101 21 101 21 82 43 c 0,44,45
 63 67 63 67 51 90 c 0,46,47
 37 117 37 117 30 153 c 0,48,49
 25 175 25 175 25 198 c 0,50,51
 25 212 25 212 27 224 c 0,52,53
 29 243 29 243 33 266 c 0,54,55
 39 290 39 290 47 311 c 0,56,57
 57 336 57 336 71 356 c 0,58,59
 83 376 83 376 104 397 c 0,60,61
 120 413 120 413 142 427 c 0,62,63
 142 427 142 427 142 428.5 c 128,-1,64
 142 430 142 430 142 430 c 0,65,66
 146 450 146 450 156 464 c 0,67,68
 164 478 164 478 174 486 c 0,69,70
 184 493 184 493 198 500 c 1,71,72
 184 487 184 487 175 469 c 0,73,74
 169 456 169 456 166 441 c 1,75,76
 188 451 188 451 211 459 c 0,77,78
 246 469 246 469 288 472 c 1,79,-1
 288 437 l 1,0,1
EndSplineSet
EndChar

StartChar: uniE003
Encoding: 57347 57347 7
Width: 367
GlyphClass: 2
Flags: W
LayerCount: 2
Fore
SplineSet
25 384 m 1,0,1
 41 387 41 387 57 387 c 0,2,3
 76 387 76 387 94 383 c 1,4,5
 111 415 111 415 142 444 c 0,6,7
 175 477 175 477 220 500 c 1,8,-1
 233 469 l 1,9,-1
 232 469 l 1,10,11
 186 450 186 450 150 402 c 0,12,13
 138 387 138 387 127 370 c 1,14,15
 128 370 128 370 129 369.5 c 128,-1,16
 130 369 130 369 131 368 c 0,17,18
 136 365 136 365 139 362 c 0,19,20
 144 358 144 358 146 356 c 0,21,22
 149 354 149 354 152 351 c 1,23,24
 164 383 164 383 190 408 c 0,25,26
 217 434 217 434 245 444 c 1,27,-1
 257 415 l 1,28,29
 241 411 241 411 222 396 c 0,30,31
 203 381 203 381 190 365 c 0,32,33
 182 354 182 354 177 344 c 0,34,35
 174 338 174 338 166 317 c 0,36,37
 160 303 160 303 154 293 c 1,38,39
 154 293 154 293 153.5 293.5 c 128,-1,40
 153 294 153 294 153 294 c 2,41,42
 138 325 138 325 114 345 c 1,43,44
 111 338 111 338 104 325 c 0,45,46
 96 303 96 303 89 275 c 0,47,48
 84 255 84 255 84 234 c 0,49,50
 84 229 84 229 85 217 c 0,51,52
 88 185 88 185 98 155 c 0,53,54
 133 56 133 56 194 34 c 0,55,56
 209 29 209 29 225 28 c 0,57,58
 252 28 252 28 279 44 c 0,59,60
 313 66 313 66 327 100 c 0,61,62
 335 119 335 119 335 137 c 0,63,64
 335 141 335 141 335 143 c 0,65,66
 334 157 334 157 328 172 c 0,67,68
 322 186 322 186 312 198 c 256,69,70
 303 210 303 210 286 215 c 0,71,72
 277 218 277 218 267 218 c 0,73,74
 260 218 260 218 248 216 c 1,75,76
 259 225 259 225 275 226 c 2,77,-1
 275 226 l 2,78,79
 289 226 289 226 304 218 c 0,80,81
 319 209 319 209 331 196 c 0,82,83
 344 182 344 182 350 162 c 0,84,85
 356 145 356 145 357 126 c 2,86,-1
 357 123 l 1,87,88
 355 85 355 85 337 56 c 0,89,90
 318 28 318 28 288 13 c 0,91,92
 259 0 259 0 226 0 c 2,93,-1
 225 0 l 1,94,-1
 224 0 l 2,95,96
 198 0 198 0 175 9 c 0,97,98
 152 17 152 17 129 36 c 0,99,100
 106 54 106 54 90 80 c 0,101,102
 72 107 72 107 63 144 c 0,103,104
 54 181 54 181 54 225 c 2,105,-1
 54 228 l 2,106,107
 54 266 54 266 63 301 c 0,108,109
 71 335 71 335 86 367 c 1,110,111
 60 382 60 382 25 384 c 1,0,1
EndSplineSet
EndChar

StartChar: uniE004
Encoding: 57348 57348 8
Width: 303
GlyphClass: 2
Flags: W
LayerCount: 2
Fore
SplineSet
168 477 m 1,0,1
 133 462 133 462 104 425 c 0,2,3
 75 387 75 387 63 346 c 0,4,5
 54 317 54 317 55 296 c 0,6,7
 55 288 55 288 57 278 c 0,8,9
 63 244 63 244 76 219 c 0,10,11
 87 194 87 194 102 179 c 0,12,13
 116 164 116 164 134 157 c 0,14,15
 149 151 149 151 165 151 c 2,16,-1
 168 151 l 2,17,18
 178 151 178 151 193 157 c 0,19,20
 206 162 206 162 217 173 c 0,21,22
 229 185 229 185 237 201 c 0,23,24
 244 215 244 215 245 238 c 2,25,-1
 245 242 l 2,26,27
 244 267 244 267 232 294 c 1,28,29
 262 267 262 267 278 237 c 0,30,31
 293 207 293 207 293 177 c 2,32,-1
 293 174 l 2,33,34
 293 149 293 149 286 122 c 0,35,36
 278 95 278 95 261 71 c 0,37,38
 246 48 246 48 224 29 c 0,39,40
 205 11 205 11 183 0 c 1,41,42
 270 81 270 81 271 171 c 0,43,44
 271 198 271 198 263 225 c 1,45,-1
 263 224 l 2,46,47
 263 215 263 215 260 206 c 0,48,49
 255 188 255 188 242 170 c 0,50,51
 230 153 230 153 213 142 c 0,52,53
 196 130 196 130 183 126 c 0,54,55
 173 122 173 122 163 122 c 0,56,57
 159 122 159 122 153 123 c 0,58,59
 124 129 124 129 102 143 c 0,60,61
 79 159 79 159 63 180 c 0,62,63
 49 202 49 202 40 227 c 0,64,65
 30 252 30 252 27 276 c 0,66,67
 25 292 25 292 25 307 c 0,68,69
 25 309 25 309 25.5 314 c 128,-1,70
 26 319 26 319 26 321 c 0,71,72
 28 343 28 343 33 356 c 0,73,74
 33 357 33 357 37 365 c 0,75,76
 38 367 38 367 42 377 c 2,77,-1
 48 389 l 2,78,79
 49 391 49 391 52 396 c 128,-1,80
 55 401 55 401 56 403 c 0,81,82
 60 410 60 410 66 418 c 0,83,84
 70 423 70 423 78 434 c 0,85,86
 78 434 78 434 83.5 440 c 128,-1,87
 89 446 89 446 92 450 c 0,88,89
 100 459 100 459 110 467 c 0,90,91
 111 468 111 468 131 483 c 0,92,93
 148 495 148 495 156 500 c 1,94,-1
 168 477 l 1,0,1
EndSplineSet
EndChar

StartChar: uniE005
Encoding: 57349 57349 9
Width: 390
GlyphClass: 2
Flags: W
LayerCount: 2
Fore
SplineSet
381 484 m 1,0,1
 367 486 367 486 351 486 c 0,2,3
 309 486 309 486 282 465 c 0,4,5
 246 437 246 437 246 387 c 0,6,7
 246 336 246 336 285 275 c 1,8,9
 285 275 285 275 284 276 c 0,10,11
 237 292 237 292 199 293 c 2,12,-1
 193 293 l 2,13,14
 151 292 151 292 123 272 c 0,15,16
 95 255 95 255 78 223 c 0,17,18
 62 193 62 193 56 154 c 0,19,20
 56 152 56 152 56 146 c 0,21,22
 56 133 56 133 60 121 c 0,23,24
 65 102 65 102 78 83 c 0,25,26
 90 64 90 64 106 46 c 0,27,28
 123 30 123 30 151 22 c 0,29,30
 173 14 173 14 195 13 c 0,31,32
 201 13 201 13 205 13 c 0,33,34
 266 17 266 17 316 69 c 1,35,36
 261 0 261 0 187 0 c 2,37,-1
 183 0 l 2,38,39
 143 1 143 1 108 22 c 0,40,41
 72 44 72 44 49 79 c 0,42,43
 26 115 26 115 26 155 c 0,44,45
 26 156 26 156 25.5 158.5 c 128,-1,46
 25 161 25 161 25 163 c 0,47,48
 25 210 25 210 53 251 c 0,49,50
 84 294 84 294 131 312 c 0,51,52
 155 321 155 321 187 323 c 2,53,-1
 195 323 l 2,54,55
 212 323 212 323 227 319 c 1,56,57
 213 347 213 347 213 382 c 0,58,59
 213 411 213 411 223 436 c 0,60,61
 233 462 233 462 254 479 c 0,62,63
 276 497 276 497 306 500 c 0,64,65
 307 500 307 500 309 500 c 128,-1,66
 311 500 311 500 312 500 c 0,67,68
 341 499 341 499 381 484 c 1,0,1
EndSplineSet
EndChar

StartChar: uniE006
Encoding: 57350 57350 10
Width: 417
GlyphClass: 2
Flags: W
LayerCount: 2
Fore
SplineSet
25 500 m 1,0,-1
 58 500 l 1,1,2
 57 454 57 454 63 399 c 0,3,4
 69 347 69 347 88 289 c 0,5,6
 105 230 105 230 133 191 c 0,7,8
 153 161 153 161 171 141 c 0,9,10
 191 117 191 117 207 103 c 0,11,12
 223 88 223 88 242 74 c 0,13,14
 258 63 258 63 280 50 c 0,15,16
 284 48 284 48 309 35 c 1,17,18
 305 38 305 38 297 45 c 0,19,20
 260 83 260 83 242 135 c 0,21,22
 228 177 228 177 228 221 c 0,23,24
 228 230 228 230 229 249 c 0,25,26
 232 283 232 283 239 308 c 0,27,28
 246 336 246 336 258 365 c 0,29,30
 271 393 271 393 292 418 c 0,31,32
 314 444 314 444 340 463 c 0,33,34
 371 486 371 486 408 500 c 1,35,36
 359 469 359 469 325 429 c 0,37,38
 290 389 290 389 274 347 c 0,39,40
 257 304 257 304 256 257 c 0,41,42
 256 253 256 253 255 246 c 0,43,44
 255 205 255 205 266 166 c 0,45,46
 278 123 278 123 308 80 c 0,47,48
 337 38 337 38 377 3 c 0,49,50
 378 3 378 3 380 2 c 128,-1,51
 382 1 382 1 383 0 c 1,52,53
 374 0 374 0 362 0 c 0,54,55
 297 1 297 1 233 40 c 0,56,57
 166 79 166 79 119 150 c 0,58,59
 93 188 93 188 73 232 c 0,60,61
 55 275 55 275 41 345 c 0,62,63
 26 416 26 416 25 500 c 1,0,-1
EndSplineSet
EndChar

StartChar: uniE007
Encoding: 57351 57351 11
Width: 378
GlyphClass: 2
Flags: W
LayerCount: 2
Fore
SplineSet
25 427 m 1,0,1
 45 426 45 426 73 425 c 0,2,3
 96 425 96 425 114 427 c 0,4,5
 138 428 138 428 162 433 c 0,6,7
 186 438 186 438 200 443 c 0,8,9
 214 447 214 447 240 459 c 0,10,11
 263 469 263 469 273 475 c 0,12,13
 276 477 276 477 304 493 c 0,14,15
 310 496 310 496 318 500 c 1,16,17
 298 478 298 478 284 461 c 1,18,-1
 284 461 l 1,19,20
 262 435 262 435 243 410 c 0,21,22
 212 367 212 367 194 329 c 0,23,24
 176 291 176 291 167 267 c 0,25,26
 158 238 158 238 151 214 c 0,27,28
 143 182 143 182 141 152 c 0,29,30
 141 149 141 149 140 142 c 0,31,32
 140 118 140 118 146 98 c 0,33,34
 152 74 152 74 165 57 c 0,35,36
 177 41 177 41 198 33 c 0,37,38
 212 28 212 28 228 28 c 0,39,40
 235 28 235 28 243 29 c 0,41,42
 261 31 261 31 275 36 c 0,43,44
 290 40 290 40 308 51 c 0,45,46
 325 61 325 61 342 82 c 0,47,48
 357 102 357 102 369 131 c 1,49,50
 367 93 367 93 342 62 c 0,51,52
 318 31 318 31 284 15 c 0,53,54
 250 0 250 0 216 0 c 2,55,-1
 213 0 l 2,56,57
 190 0 190 0 169 9 c 0,58,59
 149 18 149 18 132 37 c 0,60,61
 117 55 117 55 110 85 c 0,62,63
 105 105 105 105 104 132 c 0,64,65
 104 143 104 143 105 155 c 0,66,67
 106 174 106 174 111 194 c 0,68,69
 115 217 115 217 123 243 c 0,70,71
 130 271 130 271 141 298 c 0,72,73
 150 323 150 323 169 354 c 0,74,75
 187 386 187 386 207 409 c 0,76,77
 213 416 213 416 220 425 c 1,78,79
 200 417 200 417 180 413 c 0,80,81
 158 407 158 407 131 407 c 0,82,83
 119 407 119 407 106 408 c 0,84,85
 67 412 67 412 25 427 c 1,0,1
EndSplineSet
EndChar

StartChar: uniE008
Encoding: 57352 57352 12
Width: 432
GlyphClass: 2
Flags: W
LayerCount: 2
Fore
SplineSet
25 391 m 1,0,1
 49 391 49 391 74 396 c 0,2,3
 94 399 94 399 116 404 c 0,4,5
 135 409 135 409 157 420 c 0,6,7
 179 429 179 429 193 436 c 0,8,9
 204 441 204 441 222 454 c 0,10,11
 223 455 223 455 226 457.5 c 128,-1,12
 229 460 229 460 230 461 c 0,13,14
 259 488 259 488 289 500 c 1,15,16
 289 500 289 500 287.5 498.5 c 128,-1,17
 286 497 286 497 286 496 c 1,18,19
 287 497 287 497 289 498.5 c 128,-1,20
 291 500 291 500 291 500 c 1,21,22
 281 486 281 486 272 475 c 0,23,24
 265 466 265 466 252 454 c 1,25,26
 133 297 133 297 125 183 c 0,27,28
 125 171 125 171 125 165 c 0,29,30
 125 100 125 100 165 62 c 0,31,32
 198 31 198 31 243 31 c 2,33,-1
 246 31 l 2,34,35
 286 31 286 31 310 54 c 0,36,37
 332 76 332 76 333 108 c 0,38,39
 333 123 333 123 327 140 c 0,40,41
 321 156 321 156 312 169 c 0,42,43
 302 183 302 183 295 190 c 0,44,45
 287 200 287 200 280 207 c 0,46,47
 275 211 275 211 274 212 c 1,48,49
 285 209 285 209 296 203 c 1,50,51
 312 199 312 199 330 198 c 0,52,53
 343 197 343 197 358 197 c 0,54,55
 375 197 375 197 388 199 c 0,56,57
 413 202 413 202 422 206 c 1,58,59
 417 198 417 198 384 189 c 0,60,61
 354 181 354 181 328 180 c 1,62,63
 333 175 333 175 339 166 c 0,64,65
 344 157 344 157 347 148 c 0,66,67
 348 146 348 146 349 143 c 128,-1,68
 350 140 350 140 351.5 136 c 128,-1,69
 353 132 353 132 354 130 c 0,70,71
 359 115 359 115 359 100 c 0,72,73
 359 82 359 82 352 67 c 0,74,75
 339 35 339 35 310 17 c 0,76,77
 283 0 283 0 252 0 c 2,78,-1
 248 0 l 2,79,80
 243 0 243 0 234 1 c 0,81,82
 189 9 189 9 159 32 c 0,83,84
 128 56 128 56 116 88 c 0,85,86
 103 120 103 120 100 160 c 1,87,-1
 100 173 l 2,88,89
 100 209 100 209 109 241 c 0,90,91
 119 284 119 284 135 324 c 0,92,93
 153 366 153 366 177 399 c 0,94,95
 177 399 177 399 178.5 401.5 c 128,-1,96
 180 404 180 404 181 406 c 1,97,98
 173 402 173 402 161 397 c 0,99,100
 144 392 144 392 122 389 c 0,101,102
 103 387 103 387 84 386 c 2,103,-1
 77 386 l 2,104,105
 49 388 49 388 25 391 c 1,0,1
EndSplineSet
EndChar

StartChar: uniE009
Encoding: 57353 57353 13
Width: 408
GlyphClass: 2
Flags: W
LayerCount: 2
Fore
SplineSet
207 473 m 1,0,1
 159 431 159 431 134 360 c 0,2,3
 128 337 128 337 126 326 c 1,4,5
 164 338 164 338 193 360 c 0,6,7
 258 409 258 409 273 500 c 1,8,9
 274 499 274 499 278 495 c 1,10,11
 306 482 306 482 324 464 c 0,12,13
 346 445 346 445 360 421 c 0,14,15
 374 398 374 398 383 369 c 0,16,17
 391 343 391 343 395 314 c 0,18,19
 399 284 399 284 399 259 c 2,20,-1
 399 257 l 2,21,22
 399 212 399 212 387 168 c 0,23,24
 375 122 375 122 355 88 c 0,25,26
 336 54 336 54 312 30 c 0,27,28
 288 6 288 6 264 0 c 1,29,30
 291 23 291 23 310 49 c 0,31,32
 329 76 329 76 341 101 c 0,33,34
 351 126 351 126 357 155 c 0,35,36
 364 192 364 192 364 206 c 0,37,38
 364 211 364 211 364.5 224 c 128,-1,39
 365 237 365 237 365 244 c 2,40,-1
 365 254 l 2,41,42
 365 288 365 288 357 325 c 0,43,44
 350 360 350 360 338 385 c 0,45,46
 329 407 329 407 315 428 c 0,47,48
 304 446 304 446 296 456 c 0,49,50
 289 462 289 462 286 462 c 1,51,52
 286 446 286 446 279 426 c 0,53,54
 270 404 270 404 253 385 c 0,55,56
 235 363 235 363 212 349 c 0,57,58
 188 333 188 333 158 322 c 0,59,60
 142 316 142 316 123 311 c 1,61,62
 118 281 118 281 117 247 c 0,63,64
 117 242 117 242 118 229 c 128,-1,65
 119 216 119 216 119 209 c 0,66,67
 119 162 119 162 147 99 c 0,68,69
 169 50 169 50 217 0 c 1,70,71
 206 0 206 0 190 11 c 0,72,73
 175 22 175 22 161 41 c 0,74,75
 144 65 144 65 131 85 c 0,76,77
 116 110 116 110 105 141 c 0,78,79
 95 173 95 173 89 207 c 0,80,81
 85 233 85 233 85 257 c 2,82,-1
 85 278 l 2,83,84
 85 280 85 280 88 307 c 1,85,86
 88 307 88 307 77 307 c 0,87,88
 51 307 51 307 25 312 c 1,89,-1
 28 312 l 2,90,91
 61 312 61 312 89 317 c 1,92,93
 91 332 91 332 97 352 c 0,94,95
 106 388 106 388 131 427 c 0,96,97
 156 465 156 465 190 497 c 1,98,-1
 207 473 l 1,0,1
EndSplineSet
EndChar

StartChar: uniE00A
Encoding: 57354 57354 14
Width: 456
GlyphClass: 2
Flags: W
LayerCount: 2
Fore
SplineSet
26 8 m 1,0,1
 26 9 26 9 25.5 11 c 128,-1,2
 25 13 25 13 25 14 c 0,3,4
 25 25 25 25 29 37 c 0,5,6
 33 50 33 50 39 55 c 0,7,8
 45 61 45 61 52 68 c 1,9,10
 45 76 45 76 40 92 c 0,11,12
 35 109 35 109 35 132 c 2,13,-1
 35 134 l 2,14,15
 35 172 35 172 57 216 c 1,16,-1
 79 206 l 2,17,18
 79 206 79 206 76 199 c 0,19,20
 75 196 75 196 71 187 c 0,21,22
 68 178 68 178 66.5 171 c 128,-1,23
 65 164 65 164 62 151 c 0,24,25
 61 139 61 139 60 128 c 2,26,-1
 60 124 l 2,27,28
 60 113 60 113 61 104 c 0,29,30
 62 93 62 93 68 79 c 0,31,32
 73 64 73 64 80 53 c 1,33,-1
 78 53 l 1,34,-1
 75 53 l 2,35,36
 68 52 68 52 61 49 c 0,37,38
 54 45 54 45 46 38 c 0,39,40
 37 26 37 26 36 25 c 0,41,42
 34 21 34 21 26 8 c 1,0,1
94 196 m 1,43,-1
 119 183 l 1,44,45
 110 156 110 156 110 133 c 2,46,-1
 110 128 l 2,47,48
 111 104 111 104 122 87 c 0,49,50
 133 70 133 70 146 58 c 0,51,52
 160 47 160 47 177 40 c 0,53,54
 192 34 192 34 207 31 c 0,55,56
 218 29 218 29 224 29 c 2,57,-1
 226 29 l 2,58,59
 249 30 249 30 268 40 c 0,60,61
 288 50 288 50 301 66 c 0,62,63
 315 81 315 81 328 100 c 0,64,65
 340 122 340 122 346 142 c 0,66,67
 353 166 353 166 357 186 c 0,68,69
 360 208 360 208 361 228 c 2,70,-1
 361 233 l 2,71,72
 361 302 361 302 319 378 c 0,73,74
 275 458 275 458 212 500 c 1,75,76
 272 484 272 484 332 484 c 0,77,78
 387 484 387 484 446 498 c 1,79,80
 444 494 444 494 430 486 c 0,81,82
 418 479 418 479 397 470 c 0,83,84
 375 462 375 462 352 457 c 0,85,86
 337 454 337 454 321 454 c 0,87,88
 315 454 315 454 310 454 c 1,89,90
 332 434 332 434 347 412 c 0,91,92
 364 385 364 385 376 353 c 0,93,94
 387 321 387 321 391 288 c 0,95,96
 393 263 393 263 394 241 c 0,97,98
 394 227 394 227 393 220 c 0,99,100
 392 187 392 187 384 154 c 0,101,102
 377 122 377 122 361 94 c 0,103,104
 346 65 346 65 327 46 c 256,105,106
 308 26 308 26 281 13 c 0,107,108
 254 1 254 1 222 0 c 2,109,-1
 217 0 l 2,110,111
 173 0 173 0 138 22 c 0,112,113
 101 45 101 45 87 88 c 0,114,115
 81 105 81 105 81 127 c 0,116,117
 81 159 81 159 94 196 c 1,43,-1
EndSplineSet
EndChar

StartChar: uniE00B
Encoding: 57355 57355 15
Width: 340
GlyphClass: 2
Flags: W
LayerCount: 2
Fore
SplineSet
284 478 m 1,0,1
 247 449 247 449 217 417 c 0,2,3
 187 384 187 384 169 353 c 0,4,5
 161 340 161 340 150 322 c 1,6,7
 157 323 157 323 172 326 c 0,8,9
 188 328 188 328 204 328 c 2,10,-1
 208 328 l 2,11,12
 221 328 221 328 234 327 c 0,13,14
 249 326 249 326 260 324 c 0,15,16
 263 324 263 324 283 319 c 0,17,18
 285 319 285 319 287.5 319 c 128,-1,19
 290 319 290 319 291 318 c 1,20,21
 267 317 267 317 247 315 c 0,22,23
 231 314 231 314 210 310 c 0,24,25
 181 303 181 303 179 303 c 0,26,27
 166 300 166 300 151 293 c 0,28,29
 139 288 139 288 131 283 c 1,30,31
 122 261 122 261 115 237 c 0,32,33
 109 210 109 210 104 187 c 0,34,35
 100 165 100 165 99 143 c 0,36,37
 99 139 99 139 99 131 c 0,38,39
 99 98 99 98 112 76 c 0,40,41
 127 48 127 48 155 40 c 0,42,43
 172 35 172 35 190 35 c 0,44,45
 201 35 201 35 214 37 c 0,46,47
 246 42 246 42 278 68 c 0,48,49
 311 94 311 94 331 134 c 1,50,51
 325 108 325 108 311 85 c 0,52,53
 299 63 299 63 285 48 c 0,54,55
 271 34 271 34 253 24 c 0,56,57
 236 14 236 14 218 8 c 0,58,59
 203 3 203 3 185 0 c 0,60,61
 180 0 180 0 173 0 c 0,62,63
 150 0 150 0 131 11 c 0,64,65
 112 21 112 21 95 41 c 0,66,67
 80 60 80 60 72 89 c 0,68,69
 64 114 64 114 63 140 c 0,70,71
 63 147 63 147 65 152 c 0,72,73
 67 197 67 197 79 240 c 0,74,75
 81 246 81 246 82 252 c 1,76,77
 81 251 81 251 80 250 c 0,78,79
 72 244 72 244 53 229 c 0,80,81
 46 224 46 224 36.5 217 c 128,-1,82
 27 210 27 210 25 208 c 1,83,84
 30 250 30 250 35 268 c 0,85,86
 52 331 52 331 120 428 c 0,87,88
 133 447 133 447 140 457 c 1,89,-1
 161 434 l 1,90,91
 90 351 90 351 68 274 c 1,92,93
 69 275 69 275 72 278.5 c 128,-1,94
 75 282 75 282 76 283 c 0,95,96
 87 293 87 293 100 301 c 1,97,98
 103 310 103 310 113 328 c 0,99,100
 136 372 136 372 174 418 c 0,101,102
 212 462 212 462 263 500 c 1,103,-1
 284 478 l 1,0,1
EndSplineSet
EndChar

StartChar: uniE00C
Encoding: 57356 57356 16
Width: 344
GlyphClass: 2
Flags: W
LayerCount: 2
Fore
SplineSet
160 426 m 1,0,1
 182 408 182 408 197 389 c 0,2,3
 221 360 221 360 239 332 c 0,4,5
 259 300 259 300 272 268 c 0,6,7
 286 237 286 237 299 205 c 0,8,9
 309 175 309 175 317 143 c 0,10,11
 324 111 324 111 327 88 c 0,12,13
 330 61 330 61 331 47 c 0,14,15
 331 46 331 46 331 45 c 0,16,17
 331 27 331 27 327 18 c 1,18,19
 249 143 249 143 168 150 c 0,20,21
 166 150 166 150 160 151 c 0,22,23
 141 151 141 151 124 141 c 0,24,25
 102 131 102 131 87 114 c 0,26,27
 72 98 72 98 58 74 c 0,28,29
 44 50 44 50 38 34 c 0,30,31
 32 20 32 20 25 0 c 1,32,-1
 25 6 l 2,33,34
 25 24 25 24 30 43 c 0,35,36
 35 68 35 68 47 91 c 0,37,38
 57 113 57 113 75 135 c 0,39,40
 92 157 92 157 113 167 c 0,41,42
 133 178 133 178 156 178 c 2,43,-1
 159 178 l 2,44,45
 179 178 179 178 198 172 c 0,46,47
 216 168 216 168 240 157 c 0,48,49
 262 146 262 146 280 128 c 0,50,51
 291 118 291 118 302 98 c 1,52,53
 301 99 301 99 301 100 c 0,54,55
 289 144 289 144 273 187 c 0,56,57
 259 225 259 225 244 258 c 0,58,59
 230 288 230 288 210 317 c 0,60,61
 186 352 186 352 175 365 c 0,62,63
 162 383 162 383 138 406 c 0,64,65
 118 426 118 426 103 439 c 0,66,67
 98 443 98 443 86 454 c 128,-1,68
 74 465 74 465 67 470 c 0,69,70
 65 472 65 472 61 475 c 128,-1,71
 57 478 57 478 55 479.5 c 128,-1,72
 53 481 53 481 51 482 c 1,73,74
 110 462 110 462 160 454 c 1,75,76
 141 471 141 471 108 500 c 1,77,78
 119 497 119 497 124 495 c 0,79,80
 154 487 154 487 189 482 c 0,81,82
 221 478 221 478 266 478 c 0,83,84
 276 478 276 478 300 479 c 1,85,86
 298 473 298 473 268 469 c 0,87,88
 249 466 249 466 223 465 c 0,89,90
 215 465 215 465 196 466 c 0,91,92
 189 467 189 467 176 468 c 1,93,94
 189 459 189 459 202 449 c 1,95,96
 217 448 217 448 237 446 c 2,97,-1
 244 446 l 2,98,99
 307 447 307 447 334 459 c 1,100,101
 302 429 302 429 227 425 c 1,102,103
 238 414 238 414 250 401 c 0,104,105
 278 370 278 370 290 351 c 1,106,-1
 271 337 l 1,107,108
 260 361 260 361 193 424 c 1,109,110
 183 425 183 425 160 426 c 1,0,1
EndSplineSet
EndChar

StartChar: uniE00D
Encoding: 57357 57357 17
Width: 386
GlyphClass: 2
Flags: W
LayerCount: 2
Fore
SplineSet
39 420 m 1,0,1
 58 419 58 419 81 419 c 0,2,3
 109 419 109 419 136 422 c 0,4,5
 181 427 181 427 215 439 c 0,6,7
 248 451 248 451 275 467 c 0,8,9
 281 470 281 470 284 471 c 0,10,11
 304 485 304 485 324 498 c 0,12,13
 324 498 324 498 325 499 c 128,-1,14
 326 500 326 500 327 500 c 1,15,16
 327 500 327 500 326.5 500 c 128,-1,17
 326 500 326 500 326 500 c 257,18,19
 326 500 326 500 326.5 500 c 128,-1,20
 327 500 327 500 327 500 c 1,21,-1
 326 499 l 1,22,23
 308 465 308 465 278 442 c 0,24,25
 277 441 277 441 275 440 c 0,26,27
 269 432 269 432 256 415 c 1,28,29
 279 426 279 426 298 439 c 0,30,31
 322 456 322 456 338 475 c 1,32,-1
 357 458 l 1,33,34
 313 416 313 416 267 392 c 0,35,36
 249 382 249 382 228 374 c 1,37,38
 165 271 165 271 151 164 c 0,39,40
 149 148 149 148 148 133 c 0,41,42
 148 107 148 107 156 87 c 0,43,44
 167 54 167 54 190 42 c 0,45,46
 209 32 209 32 234 32 c 0,47,48
 241 32 241 32 245 32 c 0,49,50
 275 34 275 34 310 60 c 0,51,52
 345 85 345 85 377 131 c 1,53,54
 353 63 353 63 314 33 c 0,55,56
 275 1 275 1 230 0 c 0,57,58
 205 0 205 0 184 10 c 0,59,60
 162 19 162 19 145 38 c 0,61,62
 128 57 128 57 120 84 c 0,63,64
 110 113 110 113 109 146 c 0,65,66
 109 177 109 177 116 213 c 0,67,68
 123 249 123 249 140 287 c 0,69,70
 156 326 156 326 178 360 c 1,71,72
 159 357 159 357 142 357 c 0,73,74
 129 357 129 357 118 358 c 0,75,76
 88 361 88 361 67 372 c 0,77,78
 66 372 66 372 64.5 373 c 128,-1,79
 63 374 63 374 63 374 c 1,80,81
 56 357 56 357 46 345 c 0,82,83
 36 333 36 333 25 330 c 1,84,85
 36 346 36 346 39 357 c 0,86,87
 44 368 44 368 43 378 c 0,88,89
 42 386 42 386 40 390 c 0,90,91
 39 392 39 392 35 399 c 1,92,-1
 35 399 l 1,93,-1
 35 399 l 1,94,95
 71 384 71 384 108 383 c 0,96,97
 114 383 114 383 127 382 c 0,98,99
 156 382 156 382 179 387 c 0,100,101
 192 390 192 390 203 393 c 1,102,103
 207 399 207 399 217 411 c 1,104,105
 217 411 217 411 215.5 410.5 c 128,-1,106
 214 410 214 410 214 410 c 0,107,108
 181 402 181 402 147 401 c 2,109,-1
 139 401 l 2,110,111
 108 401 108 401 85 406 c 0,112,113
 61 411 61 411 39 420 c 1,0,1
36 398 m 1,114,-1
 36 398 l 1,115,-1
 36 398 l 1,114,-1
EndSplineSet
EndChar

StartChar: uniE00E
Encoding: 57358 57358 18
Width: 347
GlyphClass: 2
Flags: W
LayerCount: 2
Fore
SplineSet
283 494 m 0,0,1
 287 497 287 497 289 498 c 0,2,3
 291 499 291 499 292 500 c 1,4,5
 278 469 278 469 251 450 c 0,6,7
 247 447 247 447 243 444 c 0,8,9
 228 424 228 424 213 402 c 0,10,11
 180 352 180 352 161 302 c 0,12,13
 143 250 143 250 136 211 c 0,14,15
 131 183 131 183 130 160 c 0,16,17
 130 149 130 149 132 135 c 0,18,19
 132 134 132 134 133 133 c 0,20,21
 135 133 135 133 141 132 c 0,22,23
 174 132 174 132 209 144 c 1,24,25
 186 114 186 114 137 111 c 1,26,27
 142 96 142 96 151 87 c 0,28,29
 164 71 164 71 191 68 c 0,30,31
 202 67 202 67 209 66 c 0,32,33
 226 66 226 66 245 71 c 0,34,35
 273 78 273 78 299 101 c 0,36,37
 325 124 325 124 338 157 c 1,38,39
 335 122 335 122 314.5 94 c 128,-1,40
 294 66 294 66 262 50 c 0,41,42
 232 35 232 35 200 33 c 1,43,-1
 197 33 l 2,44,45
 151 33 151 33 121 77 c 0,46,47
 110 93 110 93 103 111 c 1,48,49
 84 113 84 113 76 115 c 0,50,51
 75 115 75 115 73 116 c 1,52,53
 86 90 86 90 101 68 c 0,54,55
 126 32 126 32 153 22 c 1,56,-1
 134 0 l 1,57,58
 115 11 115 11 101 24 c 0,59,60
 88 35 88 35 75 52 c 0,61,62
 61 72 61 72 51 99 c 0,63,64
 43 128 43 128 39 164 c 0,65,66
 39 164 39 164 38 167 c 1,67,68
 67 147 67 147 97 138 c 1,69,70
 95 152 95 152 95 167 c 0,71,72
 95 178 95 178 96 189 c 0,73,74
 99 221 99 221 106 251 c 0,75,76
 113 283 113 283 128 315 c 0,77,78
 142 348 142 348 164 381 c 0,79,80
 179 403 179 403 199 424 c 1,81,82
 198 424 198 424 196 423.5 c 128,-1,83
 194 423 194 423 194 423 c 0,84,85
 165 417 165 417 130 415 c 2,86,-1
 123 415 l 2,87,88
 94 415 94 415 71 419 c 0,89,90
 43 423 43 423 25 430 c 1,91,92
 41 429 41 429 54 429 c 0,93,94
 56 429 56 429 61.5 429 c 128,-1,95
 67 429 67 429 70 429 c 0,96,97
 93 430 93 430 109 431 c 0,98,99
 127 432 127 432 144 436 c 0,100,101
 167 441 167 441 176 444 c 0,102,103
 188 447 188 447 204 453 c 0,104,105
 222 460 222 460 228 464 c 0,106,107
 233 466 233 466 251 475 c 0,108,109
 254 476 254 476 260.5 480 c 128,-1,110
 267 484 267 484 270 486 c 0,111,112
 277 490 277 490 283 494 c 0,0,1
EndSplineSet
EndChar

StartChar: uniE00F
Encoding: 57359 57359 19
Width: 394
GlyphClass: 2
Flags: W
LayerCount: 2
Fore
SplineSet
126 373 m 1,0,1
 120 347 120 347 109 325 c 0,2,3
 77 257 77 257 25 218 c 1,4,5
 57 255 57 255 90 352 c 0,6,7
 118 431 118 431 129 494 c 1,8,9
 134 415 134 415 166 328 c 0,10,11
 200 237 200 237 255 152 c 0,12,13
 313 63 313 63 384 0 c 1,14,15
 338 27 338 27 297 62 c 0,16,17
 255 100 255 100 221 144 c 0,18,19
 183 193 183 193 160 248 c 0,20,21
 136 304 136 304 127 361 c 0,22,23
 127 363 127 363 126.5 367 c 128,-1,24
 126 371 126 371 126 373 c 1,0,1
184 459 m 1,25,26
 191 408 191 408 216 307 c 0,27,28
 230 251 230 251 233 236 c 1,29,30
 200 288 200 288 176 366 c 0,31,32
 154 440 154 440 151 500 c 1,33,34
 173 493 173 493 193 486 c 0,35,36
 209 481 209 481 224 478 c 0,37,38
 244 475 244 475 263 474 c 2,39,-1
 268 474 l 2,40,41
 290 474 290 474 311 478 c 1,42,43
 281 462 281 462 245 459 c 0,44,45
 228 458 228 458 217 457 c 0,46,47
 204 457 204 457 184 459 c 1,25,26
EndSplineSet
EndChar

StartChar: uniE010
Encoding: 57360 57360 20
Width: 344
GlyphClass: 2
Flags: W
LayerCount: 2
Fore
SplineSet
213 412 m 1,0,-1
 205 402 l 2,1,2
 177 373 177 373 157 339 c 0,3,4
 137 305 137 305 128 268 c 0,5,6
 124 250 124 250 125 232 c 0,7,8
 125 212 125 212 129 194 c 0,9,10
 137 139 137 139 162 105 c 0,11,12
 187 73 187 73 215 74 c 2,13,-1
 216 74 l 2,14,15
 242 74 242 74 261 93 c 0,16,17
 281 113 281 113 289 144 c 0,18,19
 298 172 298 172 299 209 c 0,20,21
 299 251 299 251 289 286 c 0,22,23
 280 323 280 323 264 347 c 0,24,25
 249 373 249 373 230 394 c 0,26,27
 218 407 218 407 213 412 c 1,0,-1
257 9 m 1,28,29
 233 0 233 0 210 0 c 2,30,-1
 205 0 l 2,31,32
 176 1 176 1 154 13 c 0,33,34
 131 25 131 25 122 43 c 1,35,36
 122 43 122 43 122 44 c 0,37,38
 105 29 105 29 85 29 c 0,39,40
 72 29 72 29 57 36 c 1,41,42
 104 43 104 43 120 76 c 1,43,44
 123 68 123 68 129 60 c 0,45,46
 134 53 134 53 147 44 c 0,47,48
 158 36 158 36 173 30 c 0,49,50
 186 25 186 25 208 25 c 2,51,-1
 209 25 l 2,52,53
 231 25 231 25 253 33 c 1,54,-1
 257 9 l 1,28,29
102 500 m 1,55,56
 154 494 154 494 199 467 c 0,57,58
 213 459 213 459 225 449 c 1,59,60
 241 459 241 459 262 467 c 0,61,62
 291 479 291 479 325 486 c 1,63,64
 296 476 296 476 263 453 c 0,65,66
 248 442 248 442 241 436 c 1,67,68
 258 420 258 420 271 401 c 0,69,70
 301 360 301 360 316 316 c 0,71,72
 332 270 332 270 334 221 c 2,73,-1
 334 218 l 2,74,75
 334 186 334 186 327 156 c 0,76,77
 320 123 320 123 305 97 c 0,78,79
 291 70 291 70 268 55 c 0,80,81
 246 41 246 41 222 41 c 2,82,-1
 218 41 l 2,83,84
 206 41 206 41 196 43 c 0,85,86
 185 45 185 45 172 50 c 0,87,88
 159 55 159 55 150 63 c 0,89,90
 140 72 140 72 128 88 c 0,91,92
 118 104 118 104 111 123 c 0,93,94
 104 143 104 143 100 172 c 0,95,96
 97 197 97 197 97 226 c 2,97,-1
 97 238 l 2,98,99
 98 281 98 281 113 319 c 0,100,101
 126 355 126 355 150 384 c 0,102,103
 170 408 170 408 195 428 c 1,104,105
 194 428 194 428 194 428 c 0,106,107
 179 440 179 440 160 451 c 0,108,109
 144 460 144 460 134 464 c 0,110,111
 127 467 127 467 123 468 c 1,112,113
 110 449 110 449 97 438 c 0,114,115
 83 427 83 427 71 422 c 0,116,117
 58 418 58 418 47 417 c 0,118,119
 37 416 37 416 25 417 c 1,120,121
 47 426 47 426 60 435 c 0,122,123
 75 444 75 444 82 452 c 0,124,125
 89 459 89 459 94 470 c 0,126,127
 99 482 99 482 99 485 c 0,128,129
 101 487 101 487 102 500 c 1,55,56
EndSplineSet
EndChar

StartChar: uniE011
Encoding: 57361 57361 21
Width: 377
GlyphClass: 2
Flags: W
LayerCount: 2
Fore
SplineSet
333 323 m 1,0,-1
 333 327 l 2,1,2
 333 374 333 374 280 447 c 1,3,4
 280 446 280 446 278 443 c 0,5,6
 275 438 275 438 271 432 c 0,7,8
 271 431 271 431 273 429 c 2,9,-1
 275 427 l 2,10,11
 298 399 298 399 310 365 c 0,12,13
 322 332 322 332 327 290 c 0,14,15
 327 284 327 284 327 272 c 0,16,17
 327 241 327 241 319 210 c 0,18,19
 311 169 311 169 291 129 c 0,20,21
 272 92 272 92 238 57 c 0,22,23
 205 23 205 23 159 0 c 1,24,-1
 144 33 l 1,25,26
 183 50 183 50 214 82 c 0,27,28
 245 115 245 115 260 154 c 0,29,30
 276 194 276 194 284 236 c 0,31,32
 287 258 287 258 287 278 c 0,33,34
 287 297 287 297 284 318 c 0,35,36
 277 358 277 358 260 388 c 0,37,38
 255 399 255 399 247 411 c 1,39,40
 244 408 244 408 240 406 c 0,41,42
 228 398 228 398 206 391 c 0,43,44
 184 386 184 386 158 385 c 1,45,46
 184 394 184 394 204 408 c 0,47,48
 217 416 217 416 230 428 c 1,49,50
 224 433 224 433 215 440 c 0,51,52
 185 459 185 459 146 459 c 0,53,54
 108 459 108 459 76 427 c 0,55,56
 44 396 44 396 44 358 c 0,57,58
 44 341 44 341 48 327 c 0,59,60
 51 315 51 315 57 305 c 0,61,62
 61 297 61 297 71 292 c 0,63,64
 80 286 80 286 85 283 c 0,65,66
 93 280 93 280 102 278 c 0,67,68
 111 277 111 277 116 275 c 0,69,70
 119 275 119 275 128 275 c 1,71,72
 116 273 116 273 103 273 c 0,73,74
 92 273 92 273 83 275 c 0,75,76
 63 280 63 280 50 292 c 0,77,78
 38 304 38 304 32 322 c 256,79,80
 26 339 26 339 25 360 c 0,81,82
 25 383 25 383 33 406 c 0,83,84
 41 431 41 431 56 449 c 0,85,86
 70 467 70 467 95 477 c 0,87,88
 118 487 118 487 144 488 c 2,89,-1
 150 488 l 2,90,91
 189 487 189 487 221 470 c 0,92,93
 235 463 235 463 248 454 c 1,94,95
 251 459 251 459 256 467 c 0,96,97
 263 484 263 484 268 500 c 1,98,99
 300 478 300 478 327 432 c 0,100,101
 352 386 352 386 367 323 c 1,102,-1
 333 323 l 1,0,-1
EndSplineSet
EndChar

StartChar: uniE012
Encoding: 57362 57362 22
Width: 389
GlyphClass: 2
Flags: W
LayerCount: 2
Fore
SplineSet
379 18 m 1,0,1
 292 149 292 149 209 150 c 0,2,3
 205 150 205 150 198 148 c 0,4,5
 108 137 108 137 66 0 c 1,6,7
 66 9 66 9 65 13 c 0,8,9
 65 37 65 37 73 62 c 0,10,11
 82 96 82 96 100 121 c 0,12,13
 118 148 118 148 145 164 c 0,14,15
 172 181 172 181 204 181 c 0,16,17
 218 181 218 181 229 180 c 0,18,19
 240 179 240 179 258 175 c 0,20,21
 275 172 275 172 290 165 c 0,22,23
 304 158 304 158 318 146 c 0,24,25
 333 134 333 134 345 117 c 0,26,27
 349 110 349 110 352 105 c 1,28,29
 316 227 316 227 256 322 c 0,30,31
 191 423 191 423 90 500 c 1,32,33
 105 495 105 495 117 490 c 0,34,35
 133 485 133 485 135 485 c 0,36,37
 153 479 153 479 180 473 c 0,38,39
 210 468 210 468 234 466 c 0,40,41
 258 465 258 465 285 464 c 2,42,-1
 299 464 l 2,43,44
 339 465 339 465 379 469 c 1,45,46
 376 466 376 466 361 460 c 0,47,48
 350 454 350 454 317 445 c 0,49,50
 285 437 285 437 256 437 c 0,51,52
 223 437 223 437 197 442 c 1,53,54
 198 441 198 441 201 438.5 c 128,-1,55
 204 436 204 436 206 435 c 0,56,57
 229 415 229 415 252 387 c 0,58,59
 272 363 272 363 291 334 c 0,60,61
 306 307 306 307 322 275 c 0,62,63
 337 245 337 245 346 217 c 0,64,65
 356 187 356 187 365 159 c 0,66,67
 373 131 373 131 376 105 c 0,68,69
 379 76 379 76 381 57 c 0,70,71
 381 46 381 46 382 42 c 0,72,73
 382 29 382 29 380 18 c 1,74,75
 380 20 380 20 378 25 c 1,76,77
 378 24 378 24 378.5 21.5 c 128,-1,78
 379 19 379 19 379 18 c 1,0,1
25 435 m 1,79,80
 28 435 28 435 35 435 c 2,81,-1
 44 437 l 2,82,83
 44 437 44 437 52 438 c 0,84,85
 58 439 58 439 61 442 c 0,86,87
 62 443 62 443 69 449 c 0,88,89
 72 451 72 451 76 458 c 0,90,91
 79 463 79 463 83 471 c 1,92,93
 139 444 139 444 197 369 c 1,94,-1
 179 348 l 1,95,96
 155 377 155 377 150 383 c 0,97,98
 132 402 132 402 122 412 c 0,99,100
 111 423 111 423 95 436 c 1,101,102
 84 432 84 432 83 431 c 0,103,104
 74 428 74 428 59 428 c 2,105,-1
 58 428 l 2,106,107
 41 429 41 429 25 435 c 1,79,80
EndSplineSet
EndChar

StartChar: uniE013
Encoding: 57363 57363 23
Width: 306
GlyphClass: 2
Flags: W
LayerCount: 2
Fore
SplineSet
150 470 m 1,0,-1
 163 500 l 1,1,2
 290 427 290 427 295 294 c 1,3,-1
 295 285 l 2,4,5
 295 252 295 252 287 224 c 0,6,7
 279 196 279 196 265 178 c 128,-1,8
 251 160 251 160 233 146 c 0,9,10
 214 133 214 133 194.5 126.5 c 128,-1,11
 175 120 175 120 155 120 c 2,12,-1
 154 120 l 2,13,14
 116 120 116 120 90 142 c 256,15,16
 64 165 64 165 57 208 c 0,17,18
 56 214 56 214 55 222 c 0,19,20
 55 225 55 225 56 227 c 1,21,22
 54 221 54 221 53 213 c 0,23,24
 49 194 49 194 49 177 c 0,25,26
 49 155 49 155 54 134 c 0,27,28
 64 94 64 94 85 60 c 0,29,30
 105 25 105 25 135 0 c 1,31,32
 130 0 130 0 118 8 c 128,-1,33
 106 16 106 16 90 33 c 0,34,35
 76 48 76 48 60 70 c 0,36,37
 46 90 46 90 36 118 c 0,38,39
 26 146 26 146 25 173 c 0,40,41
 25 238 25 238 77 282 c 0,42,43
 85 291 85 291 95 297 c 1,44,-1
 95 296 l 1,45,46
 84 286 84 286 79 269 c 0,47,48
 75 256 75 256 74 240 c 0,49,50
 74 234 74 234 75 231 c 0,51,52
 76 212 76 212 83 194 c 0,53,54
 91 176 91 176 108 164 c 0,55,56
 125 153 125 153 150 153 c 0,57,58
 170 153 170 153 188 162 c 0,59,60
 207 170 207 170 224 186 c 0,61,62
 240 203 240 203 251 229 c 0,63,64
 261 256 261 256 260 287 c 0,65,66
 260 289 260 289 260 291 c 2,67,-1
 260 296 l 1,68,69
 258 351 258 351 224 398 c 0,70,71
 190 446 190 446 150 470 c 1,0,-1
EndSplineSet
EndChar

StartChar: uniE014
Encoding: 57364 57364 24
Width: 373
GlyphClass: 2
Flags: W
LayerCount: 2
Fore
SplineSet
25 127 m 1,0,1
 59 128 59 128 96 140 c 1,2,3
 95 136 95 136 94 135 c 0,4,5
 93 129 93 129 93 116 c 0,6,7
 93 105 93 105 93 95 c 0,8,9
 93 86 93 86 95 79 c 0,10,11
 96 74 96 74 99 65 c 0,12,13
 100 60 100 60 105 53 c 0,14,15
 107 50 107 50 112 45 c 0,16,17
 113 43 113 43 120 37 c 0,18,19
 127 32 127 32 128 30 c 2,20,21
 128 30 128 30 129.5 29 c 128,-1,22
 131 28 131 28 133 26.5 c 128,-1,23
 135 25 135 25 137 24 c 1,24,-1
 121 3 l 1,25,26
 111 11 111 11 101 22 c 0,27,28
 94 30 94 30 88 39 c 0,29,30
 83 46 83 46 79 56 c 0,31,32
 75 65 75 65 73 72 c 0,33,34
 71 79 71 79 70 86 c 0,35,36
 69 92 69 92 68 99 c 2,37,-1
 68 110 l 2,38,39
 68 113 68 113 69 117 c 2,40,-1
 69 118 l 1,41,42
 63 117 63 117 55 116 c 0,43,44
 51 116 51 116 48 117 c 0,45,46
 32 119 32 119 25 127 c 1,0,1
332 500 m 1,47,48
 305 495 305 495 273 476 c 0,49,50
 240 457 240 457 218 438 c 0,51,52
 210 431 210 431 192 416 c 128,-1,53
 174 401 174 401 168 396 c 0,54,55
 168 396 168 396 167 395.5 c 128,-1,56
 166 395 166 395 166 394 c 1,57,-1
 169 394 l 2,58,59
 207 394 207 394 238 383 c 0,60,61
 272 370 272 370 295 348 c 0,62,63
 319 326 319 326 335 299 c 0,64,65
 351 270 351 270 357 239 c 0,66,67
 363 211 363 211 364 181 c 2,68,-1
 364 173 l 2,69,70
 363 140 363 140 354 111 c 0,71,72
 346 81 346 81 332 57 c 0,73,74
 317 32 317 32 293 17 c 0,75,76
 268 1 268 1 239 0 c 0,77,78
 236 0 236 0 229 0 c 0,79,80
 216 0 216 0 204 2 c 0,81,82
 188 4 188 4 167 14 c 0,83,84
 149 23 149 23 134 39 c 0,85,86
 121 53 121 53 113 80 c 0,87,88
 108 98 108 98 108 122 c 0,89,90
 108 127 108 127 108 139 c 1,91,-1
 145 127 l 1,92,-1
 145 125 l 2,93,94
 145 103 145 103 152 88 c 0,95,96
 158 72 158 72 170 62 c 0,97,98
 181 53 181 53 195 47 c 0,99,100
 209 42 209 42 223 42 c 2,101,-1
 227 42 l 2,102,103
 265 42 265 42 292 74 c 0,104,105
 320 108 320 108 322 169 c 0,106,107
 322 171 322 171 322.5 174 c 128,-1,108
 323 177 323 177 323 179 c 0,109,110
 323 209 323 209 316 233 c 0,111,112
 309 263 309 263 296 283 c 0,113,114
 284 302 284 302 265 318 c 0,115,116
 247 334 247 334 228 343 c 0,117,118
 209 352 209 352 190 357 c 0,119,120
 172 362 172 362 155 364 c 0,121,122
 149 365 149 365 137 365 c 0,123,124
 129 365 129 365 126 365 c 1,125,126
 127 372 127 372 134 385 c 0,127,128
 142 399 142 399 153 414 c 0,129,130
 164 429 164 429 181 444 c 0,131,132
 197 457 197 457 219 472 c 0,133,134
 241 484 241 484 270 493 c 0,135,136
 298 500 298 500 329 500 c 2,137,-1
 332 500 l 1,47,48
EndSplineSet
EndChar

StartChar: uniE015
Encoding: 57365 57365 25
Width: 578
GlyphClass: 2
Flags: W
LayerCount: 2
Fore
SplineSet
311 34 m 1,0,1
 279 82 279 82 236 108 c 0,2,3
 193 135 193 135 153 135 c 2,4,-1
 152 135 l 2,5,6
 105 135 105 135 73 98 c 0,7,8
 40 61 40 61 30 0 c 1,9,10
 26 13 26 13 25 28 c 0,11,12
 25 29 25 29 25.5 32 c 128,-1,13
 26 35 26 35 26 37 c 0,14,15
 28 57 28 57 33 74 c 0,16,17
 37 93 37 93 50 111 c 0,18,19
 61 127 61 127 77 141 c 0,20,21
 92 155 92 155 114 164 c 0,22,23
 137 172 137 172 160 173 c 0,24,25
 161 173 161 173 164 173 c 128,-1,26
 167 173 167 173 169 173 c 0,27,28
 181 173 181 173 195 171 c 0,29,30
 211 169 211 169 232 161 c 0,31,32
 252 152 252 152 268 137 c 0,33,34
 272 134 272 134 276 129 c 1,35,36
 277 159 277 159 286 187 c 0,37,38
 294 220 294 220 317 260 c 0,39,40
 339 298 339 298 371 333 c 0,41,42
 403 369 403 369 450 399 c 0,43,44
 497 431 497 431 555 453 c 1,45,-1
 567 410 l 1,46,47
 530 397 530 397 496 374 c 0,48,49
 461 352 461 352 428 318 c 0,50,51
 395 284 395 284 370 245 c 0,52,53
 346 206 346 206 329 152 c 0,54,55
 313 99 313 99 310 41 c 0,56,57
 310 40 310 40 310.5 37.5 c 128,-1,58
 311 35 311 35 311 34 c 1,0,1
275 447 m 1,59,60
 276 447 276 447 280.5 447 c 128,-1,61
 285 447 285 447 286 447 c 0,62,63
 295 447 295 447 304 446 c 0,64,65
 318 445 318 445 328 443 c 0,66,67
 339 441 339 441 346 436 c 0,68,69
 353 432 353 432 362 427 c 0,70,71
 367 424 367 424 375 416 c 2,72,-1
 380 412 l 1,73,74
 385 416 385 416 393 425 c 0,75,76
 409 439 409 439 429 451 c 0,77,78
 457 465 457 465 464 468 c 0,79,80
 484 477 484 477 501 484 c 0,81,82
 524 494 524 494 535 500 c 1,83,-1
 545 466 l 1,84,85
 456 438 456 438 374 356 c 1,86,-1
 374 356 l 1,87,-1
 374 356 l 1,88,-1
 368 369 l 2,89,90
 367 372 367 372 364.5 377 c 128,-1,91
 362 382 362 382 362 384 c 0,92,93
 359 391 359 391 352 399 c 0,94,95
 346 408 346 408 336 416 c 0,96,97
 328 423 328 423 311 431 c 0,98,99
 294 440 294 440 275 447 c 1,59,60
EndSplineSet
EndChar

StartChar: uniE016
Encoding: 57366 57366 26
Width: 321
GlyphClass: 2
Flags: W
LayerCount: 2
Fore
SplineSet
312 469 m 1,0,1
 244 469 244 469 187 434 c 0,2,3
 168 423 168 423 150 407 c 1,4,5
 158 399 158 399 165 389 c 1,6,-1
 171 396 l 2,7,8
 198 422 198 422 240 434 c 0,9,10
 271 444 271 444 296 445 c 0,11,12
 304 445 304 445 312 444 c 1,13,-1
 312 414 l 1,14,-1
 306 414 l 2,15,16
 266 414 266 414 230 394 c 0,17,18
 192 374 192 374 151 333 c 1,19,20
 150 339 150 339 148 345 c 0,21,22
 148 346 148 346 148 346 c 0,23,24
 144 362 144 362 135 380 c 2,25,26
 135 380 135 380 133 383 c 0,27,28
 133 384 133 384 132 385.5 c 128,-1,29
 131 387 131 387 130 388 c 1,30,31
 111 368 111 368 95 342 c 0,32,33
 60 285 60 285 55 214 c 0,34,35
 55 204 55 204 55 200 c 0,36,37
 55 109 55 109 134 0 c 1,38,39
 29 89 29 89 25 213 c 1,40,-1
 25 220 l 2,41,42
 25 271 25 271 44 319 c 0,43,44
 64 368 64 368 102 410 c 1,45,-1
 110 417 l 1,46,47
 108 419 108 419 103.5 423 c 128,-1,48
 99 427 99 427 98 429 c 0,49,50
 72 453 72 453 45 463 c 1,51,52
 46 463 46 463 47.5 463.5 c 128,-1,53
 49 464 49 464 51 464 c 0,54,55
 85 464 85 464 125 430 c 1,56,57
 155 455 155 455 194 473 c 0,58,59
 248 497 248 497 312 500 c 1,60,-1
 312 469 l 1,0,1
EndSplineSet
EndChar

StartChar: uniE017
Encoding: 57367 57367 27
Width: 374
GlyphClass: 2
Flags: W
LayerCount: 2
Fore
SplineSet
253 478 m 1,0,1
 206 450 206 450 174 409 c 0,2,3
 142 367 142 367 127 321 c 0,4,5
 113 275 113 275 113 228 c 2,6,-1
 113 226 l 2,7,8
 113 188 113 188 123 157 c 1,9,10
 139 158 139 158 153 161 c 0,11,12
 177 167 177 167 196 180 c 1,13,14
 187 167 187 167 176 159 c 0,15,16
 164 150 164 150 151 144 c 0,17,18
 140 140 140 140 129 138 c 0,19,20
 129 138 129 138 129 137 c 0,21,22
 144 97 144 97 178 72 c 0,23,24
 211 46 211 46 258 44 c 1,25,-1
 262 44 l 2,26,27
 282 44 282 44 298 52 c 0,28,29
 315 60 315 60 326 76 c 0,30,31
 336 90 336 90 342 109 c 0,32,33
 346 126 346 126 347 147 c 2,34,-1
 347 150 l 2,35,36
 347 190 347 190 324 212 c 0,37,38
 308 227 308 227 289 227 c 0,39,40
 278 227 278 227 265 222 c 1,41,42
 281 233 281 233 297 233 c 0,43,44
 302 233 302 233 304 232 c 0,45,46
 322 229 322 229 337 214 c 0,47,48
 351 199 351 199 359 176 c 0,49,50
 366 153 366 153 367 130 c 2,51,-1
 367 128 l 2,52,53
 367 110 367 110 362 94 c 0,54,55
 358 77 358 77 349 62 c 0,56,57
 341 48 341 48 328 37 c 0,58,59
 314 25 314 25 295 18 c 0,60,61
 276 12 276 12 250 11 c 2,62,-1
 249 11 l 2,63,64
 227 11 227 11 204 19 c 0,65,66
 181 26 181 26 158 43 c 0,67,68
 136 59 136 59 118 84 c 0,69,70
 102 106 102 106 90 133 c 1,71,-1
 90 133 l 2,72,73
 87 133 87 133 81 133.5 c 128,-1,74
 75 134 75 134 73 134 c 1,75,76
 73 133 73 133 74 130 c 128,-1,77
 75 127 75 127 76 125 c 128,-1,78
 77 123 77 123 78 121 c 0,79,80
 87 99 87 99 100 82 c 0,81,82
 112 65 112 65 127 50 c 0,83,84
 140 37 140 37 156 23 c 1,85,-1
 131 0 l 1,86,87
 81 46 81 46 55.5 92 c 128,-1,88
 30 138 30 138 25 179 c 1,89,90
 54 165 54 165 83 160 c 1,91,92
 77 186 77 186 77 213 c 2,93,-1
 77 215 l 2,94,95
 77 302 77 302 121 388 c 0,96,97
 154 450 154 450 239 500 c 1,98,-1
 253 478 l 1,0,1
EndSplineSet
EndChar

StartChar: uniE018
Encoding: 57368 57368 28
Width: 390
GlyphClass: 2
Flags: W
LayerCount: 2
Fore
SplineSet
379 500 m 1,0,1
 382 489 382 489 379 480 c 256,2,3
 376 472 376 472 367 465 c 0,4,5
 358 459 358 459 351 456 c 1,6,7
 363 439 363 439 371 409 c 0,8,9
 378 378 378 378 378 345 c 0,10,11
 378 315 378 315 374 292 c 0,12,13
 371 269 371 269 357 245 c 1,14,15
 361 270 361 270 361 317 c 0,16,17
 361 413 361 413 312 471 c 1,18,19
 316 471 316 471 323 471 c 0,20,21
 346 471 346 471 359 479 c 0,22,23
 378 489 378 489 379 500 c 1,0,1
25 297 m 1,24,25
 61 323 61 323 103 322 c 0,26,27
 112 322 112 322 120 321 c 1,28,29
 92 349 92 349 88 390 c 0,30,31
 88 391 88 391 88 393 c 128,-1,32
 88 395 88 395 88 395 c 0,33,34
 88 413 88 413 96 433 c 0,35,36
 105 455 105 455 122 470 c 0,37,38
 138 486 138 486 161 494 c 0,39,40
 177 500 177 500 191 500 c 0,41,42
 196 500 196 500 206 499 c 0,43,44
 245 493 245 493 270 476 c 0,45,46
 298 461 298 461 315 437 c 256,47,48
 331 414 331 414 340 388 c 0,49,50
 347 361 347 361 348 332 c 2,51,-1
 348 325 l 2,52,53
 348 285 348 285 335 243 c 0,54,55
 320 197 320 197 297 159 c 0,56,57
 275 124 275 124 245 88 c 0,58,59
 218 56 218 56 190 33 c 0,60,61
 163 10 163 10 145 0 c 1,62,63
 165 16 165 16 193 51 c 256,64,65
 221 86 221 86 248 131 c 0,66,67
 276 177 276 177 295 230 c 0,68,69
 314 285 314 285 314 330 c 0,70,71
 314 365 314 365 304 391 c 0,72,73
 293 419 293 419 275 435 c 0,74,75
 259 450 259 450 238 460 c 0,76,77
 218 468 218 468 196 468 c 256,78,79
 174 468 174 468 156 460 c 0,80,81
 138 453 138 453 127 436 c 0,82,83
 116 420 116 420 114 399 c 0,84,85
 114 398 114 398 114 395 c 0,86,87
 114 375 114 375 127 349 c 0,88,89
 140 320 140 320 170 289 c 1,90,91
 165 291 165 291 160 294 c 0,92,93
 130 306 130 306 93 305 c 0,94,95
 62 306 62 306 25 297 c 1,24,25
EndSplineSet
EndChar

StartChar: uniE019
Encoding: 57369 57369 29
Width: 354
GlyphClass: 2
Flags: W
LayerCount: 2
Fore
SplineSet
28 0 m 1,0,1
 26 15 26 15 25 32 c 0,2,3
 25 91 25 91 60 133 c 0,4,5
 94 175 94 175 148 183 c 0,6,7
 161 185 161 185 173 185 c 0,8,9
 215 185 215 185 252 163 c 0,10,11
 284 143 284 143 303 110 c 1,12,13
 284 173 284 173 259 229 c 0,14,15
 232 290 232 290 201 342 c 0,16,17
 168 395 168 395 127 436 c 128,-1,18
 86 477 86 477 42 500 c 1,19,20
 84 494 84 494 119 476 c 0,21,22
 156 459 156 459 214 459 c 0,23,24
 268 459 268 459 344 472 c 1,25,26
 315 457 315 457 278 446 c 0,27,28
 241 436 241 436 204 436 c 0,29,30
 186 436 186 436 167 438 c 1,31,32
 193 414 193 414 214 387 c 0,33,34
 249 344 249 344 276 296 c 0,35,36
 305 245 305 245 322 186 c 0,37,38
 339 129 339 129 339 73 c 2,39,-1
 339 71 l 2,40,41
 339 42 339 42 334 12 c 1,42,43
 326 37 326 37 308 62 c 0,44,45
 291 87 291 87 269 108 c 0,46,47
 247 128 247 128 221 140 c 0,48,49
 194 152 194 152 169 153 c 0,50,51
 121 153 121 153 82 116 c 256,52,53
 44 78 44 78 28 0 c 1,0,1
EndSplineSet
EndChar

StartChar: uniE01A
Encoding: 57370 57370 30
Width: 326
GlyphClass: 2
Flags: W
LayerCount: 2
Fore
SplineSet
71 244 m 1,0,1
 127 325 127 325 127 383 c 2,2,-1
 127 385 l 1,3,4
 125 462 125 462 25 498 c 1,5,6
 35 499 35 499 41 500 c 0,7,8
 58 500 58 500 65 500 c 0,9,10
 94 500 94 500 118 496 c 0,11,12
 161 488 161 488 190 470 c 0,13,14
 220 452 220 452 245 426 c 0,15,16
 269 399 269 399 283 369 c 0,17,18
 298 334 298 334 305 302 c 0,19,20
 314 268 314 268 317 231 c 0,21,22
 317 209 317 209 317 199 c 0,23,24
 317 177 317 177 316 161 c 0,25,26
 314 127 314 127 307 96 c 0,27,28
 300 65 300 65 290.5 40.5 c 128,-1,29
 281 16 281 16 268 0 c 1,30,-1
 238 12 l 1,31,32
 249 34 249 34 258 61 c 0,33,34
 267 88 267 88 274 126 c 0,35,36
 280 161 280 161 282 201 c 2,37,-1
 282 210 l 2,38,39
 282 244 282 244 274 279 c 0,40,41
 265 319 265 319 248 354 c 0,42,43
 230 390 230 390 194 421 c 0,44,45
 161 451 161 451 118 470 c 1,46,47
 137 453 137 453 148 427 c 0,48,49
 156 409 156 409 156 389 c 0,50,51
 156 382 156 382 155 375 c 0,52,53
 149 336 149 336 131 304 c 0,54,55
 113 272 113 272 71 244 c 1,0,1
EndSplineSet
EndChar

StartChar: uniE01B
Encoding: 57371 57371 31
Width: 399
GlyphClass: 2
Flags: W
LayerCount: 2
Fore
SplineSet
385 10 m 1,0,1
 385 11 385 11 382.5 15.5 c 128,-1,2
 380 20 380 20 377.5 24 c 128,-1,3
 375 28 375 28 375 29 c 0,4,5
 375 29 375 29 372 33 c 0,6,7
 369 38 369 38 369 39 c 256,8,9
 369 39 369 39 362 50 c 0,10,11
 356 58 356 58 354 61 c 0,12,13
 353 62 353 62 349 67 c 0,14,15
 348 69 348 69 346 72 c 0,16,17
 316 107 316 107 285 125 c 0,18,19
 250 147 250 147 217 147 c 2,20,-1
 215 147 l 2,21,22
 188 147 188 147 162 134 c 0,23,24
 135 121 135 121 112 90 c 0,25,26
 105 81 105 81 98 70 c 1,27,28
 108 64 108 64 115 54 c 1,29,30
 130 76 130 76 154 96 c 0,31,32
 176 115 176 115 204 131 c 1,33,-1
 204 101 l 1,34,35
 193 96 193 96 181 88 c 0,36,37
 169 79 169 79 163 74 c 0,38,39
 156 68 156 68 145 54 c 2,40,41
 145 54 145 54 132 36 c 0,42,43
 131 35 131 35 126.5 27.5 c 128,-1,44
 122 20 122 20 118 14 c 1,45,46
 107 34 107 34 89 50 c 1,47,48
 89 49 89 49 88 47 c 0,49,50
 77 17 77 17 75 0 c 1,51,52
 75 3 75 3 74 20 c 0,53,54
 73 34 73 34 73 47 c 0,55,56
 73 54 73 54 75 62 c 1,57,58
 55 77 55 77 25 89 c 1,59,60
 59 85 59 85 78 79 c 1,61,62
 80 88 80 88 87 97 c 0,63,64
 115 136 115 136 150 157 c 0,65,66
 186 179 186 179 220 179 c 2,67,-1
 222 179 l 2,68,69
 259 179 259 179 294 160 c 0,70,71
 329 141 329 141 352 110 c 0,72,73
 358 102 358 102 361 96 c 1,74,75
 313 241 313 241 261 324 c 0,76,77
 195 427 195 427 102 500 c 1,78,79
 182 469 182 469 217 466 c 0,80,81
 231 465 231 465 263 465 c 0,82,83
 308 465 308 465 385 468 c 1,84,85
 317 438 317 438 239 438 c 0,86,87
 225 438 225 438 210 439 c 1,88,89
 299 350 299 350 337 256 c 0,90,91
 385 136 385 136 387 50 c 1,92,-1
 387 44 l 2,93,94
 387 37 387 37 386 20 c 0,95,96
 385 11 385 11 385 10 c 1,0,1
385 11 m 1024,97,-1
EndSplineSet
EndChar

StartChar: uniE01C
Encoding: 57372 57372 32
Width: 299
GlyphClass: 2
Flags: W
LayerCount: 2
Fore
SplineSet
141 477 m 1,0,-1
 157 500 l 1,1,2
 202 477 202 477 232 443 c 0,3,4
 263 408 263 408 276.5 370.5 c 128,-1,5
 290 333 290 333 290 293 c 0,6,7
 290 258 290 258 279 226 c 256,8,9
 269 195 269 195 250 171 c 0,10,11
 232 147 232 147 204 133 c 0,12,13
 178 121 178 121 146 121 c 2,14,-1
 142 121 l 2,15,16
 124 121 124 121 103 135 c 0,17,18
 81 149 81 149 68 172 c 0,19,20
 58 187 58 187 53 207 c 1,21,22
 50 192 50 192 49 178 c 0,23,24
 49 173 49 173 49 165 c 0,25,26
 49 148 49 148 52 131 c 0,27,28
 57 107 57 107 63 92 c 0,29,30
 70 75 70 75 81 59 c 0,31,32
 94 41 94 41 102 32 c 0,33,34
 105 29 105 29 125 8 c 0,35,36
 127 6 127 6 129 3 c 128,-1,37
 131 0 131 0 132 0 c 1,38,39
 125 1 125 1 114 9 c 0,40,41
 102 17 102 17 89 29 c 0,42,43
 76 42 76 42 63 59 c 0,44,45
 50 78 50 78 41 97 c 0,46,47
 31 117 31 117 27 142 c 0,48,49
 25 155 25 155 25 170 c 0,50,51
 25 182 25 182 27 193 c 0,52,53
 30 219 30 219 44 245 c 0,54,55
 59 274 59 274 85 299 c 1,56,57
 82 292 82 292 80 289 c 0,58,59
 69 263 69 263 69 240 c 0,60,61
 69 231 69 231 72 222 c 0,62,63
 79 188 79 188 102 171 c 0,64,65
 124 153 124 153 146 153 c 2,66,-1
 150 153 l 1,67,68
 191 155 191 155 222 193 c 0,69,70
 255 230 255 230 257 285 c 1,71,-1
 257 291 l 2,72,73
 257 310 257 310 254 332 c 0,74,75
 249 359 249 359 237 381 c 0,76,77
 226 407 226 407 201 432 c 0,78,79
 177 457 177 457 141 477 c 1,0,-1
146 428 m 1,80,81
 146 428 146 428 145.5 427.5 c 128,-1,82
 145 427 145 427 145 427 c 0,83,84
 141 419 141 419 132 413 c 0,85,86
 124 407 124 407 111 402 c 0,87,88
 100 399 100 399 85 399 c 2,89,-1
 80 399 l 1,90,91
 127 417 127 417 134 465 c 1,92,93
 176 443 176 443 201 407 c 0,94,95
 226 371 226 371 232 328 c 1,96,-1
 211 328 l 1,97,98
 211 337 211 337 205 353 c 0,99,100
 200 368 200 368 188 385 c 0,101,102
 178 401 178 401 162 417 c 0,103,104
 153 423 153 423 146 428 c 1,80,81
EndSplineSet
EndChar

StartChar: uniE01D
Encoding: 57373 57373 33
Width: 545
GlyphClass: 2
Flags: W
LayerCount: 2
Fore
SplineSet
157 441 m 1,0,1
 182 412 182 412 197 370 c 0,2,3
 212 322 212 322 212 274 c 0,4,5
 212 214 212 214 189 156 c 0,6,7
 166 99 166 99 124 57 c 0,8,9
 80 14 80 14 25 2 c 1,10,11
 83 42 83 42 121 92 c 0,12,13
 158 141 158 141 171 196 c 0,14,15
 178 228 178 228 178 259 c 0,16,17
 178 282 178 282 174 303 c 0,18,19
 166 356 166 356 134 408 c 0,20,21
 100 460 100 460 49 500 c 1,22,23
 103 498 103 498 150 483 c 256,24,25
 196 468 196 468 229 444 c 256,26,27
 263 420 263 420 291 387 c 0,28,29
 320 352 320 352 337 319 c 0,30,31
 355 286 355 286 370 246 c 0,32,33
 384 206 384 206 390 171 c 0,34,35
 397 134 397 134 400 102 c 0,36,37
 403 71 403 71 404 46 c 2,38,-1
 404 44 l 2,39,40
 404 15 404 15 401 0 c 1,41,-1
 373 0 l 1,42,43
 373 2 373 2 371 27 c 0,44,45
 371 41 371 41 370 70 c 0,46,47
 369 92 369 92 363.5 125 c 128,-1,48
 358 158 358 158 349 188 c 0,49,50
 340 221 340 221 324 256 c 0,51,52
 308 292 308 292 284 325 c 0,53,54
 260 358 260 358 225 390 c 0,55,56
 194 418 194 418 157 441 c 1,0,1
404 217 m 0,57,58
 400 225 400 225 398 232 c 1,59,60
 429 218 429 218 461 218 c 2,61,-1
 464 218 l 2,62,63
 494 218 494 218 534 230 c 1,64,65
 514 214 514 214 487 203 c 0,66,67
 465 195 465 195 447 195 c 0,68,69
 443 195 443 195 441 195 c 1,70,71
 447 178 447 178 451 157 c 0,72,73
 456 128 456 128 456.5 110 c 128,-1,74
 457 92 457 92 457 50 c 2,75,-1
 457 0 l 1,76,-1
 427 1 l 1,77,78
 429 26 429 26 429 54 c 0,79,80
 429 88 429 88 426 124 c 0,81,82
 420 176 420 176 404 217 c 0,57,58
EndSplineSet
EndChar

StartChar: uniE01E
Encoding: 57374 57374 34
Width: 440
GlyphClass: 2
Flags: W
LayerCount: 2
Fore
SplineSet
286 323 m 1,0,1
 279 338 279 338 275 351 c 0,2,3
 272 365 272 365 271 382 c 0,4,5
 271 388 271 388 272 391 c 0,6,7
 273 413 273 413 281 432 c 0,8,9
 287 451 287 451 301 467 c 0,10,11
 315 483 315 483 333 490 c 0,12,13
 351 499 351 499 375 500 c 0,14,15
 376 500 376 500 376 500 c 1,16,17
 401 500 401 500 430 488 c 1,18,19
 429 488 429 488 426.5 488.5 c 128,-1,20
 424 489 424 489 422 489 c 0,21,22
 386 489 386 489 358 475 c 0,23,24
 326 460 326 460 312 428 c 0,25,26
 309 421 309 421 305 410 c 0,27,28
 303 402 303 402 303 391 c 2,29,-1
 303 375 l 2,30,31
 303 368 303 368 306 357 c 0,32,33
 307 354 307 354 308.5 348.5 c 128,-1,34
 310 343 310 343 311 342 c 0,35,36
 312 336 312 336 317 325 c 0,37,38
 322 315 322 315 325 309 c 2,39,40
 325 309 325 309 333 293 c 0,41,42
 335 290 335 290 337 286 c 128,-1,43
 339 282 339 282 340 280.5 c 128,-1,44
 341 279 341 279 341 278 c 1,45,46
 304 296 304 296 269 296 c 0,47,48
 267 296 267 296 263 295.5 c 128,-1,49
 259 295 259 295 257 295 c 0,50,51
 216 291 216 291 186 275 c 0,52,53
 155 259 155 259 138 234 c 0,54,55
 125 214 125 214 118 193 c 0,56,57
 112 171 112 171 112 150 c 2,58,-1
 112 148 l 1,59,-1
 112 145 l 1,60,61
 147 146 147 146 177 159 c 1,62,63
 176 153 176 153 165 144.5 c 128,-1,64
 154 136 154 136 137 131 c 0,65,66
 130 128 130 128 114 125 c 1,67,68
 115 117 115 117 119 106 c 0,69,70
 126 86 126 86 138 69 c 0,71,72
 150 52 150 52 169 39.5 c 128,-1,73
 188 27 188 27 210 20 c 0,74,75
 226 16 226 16 250 16 c 2,76,-1
 260 16 l 1,77,78
 290 18 290 18 318 29 c 0,79,80
 345 38 345 38 372 69 c 1,81,82
 345 33 345 33 311 16 c 0,83,84
 278 0 278 0 245 0 c 2,85,-1
 243 0 l 2,86,87
 215 0 215 0 184 12 c 0,88,89
 155 24 155 24 134 44 c 0,90,91
 112 63 112 63 97 90 c 0,92,93
 89 107 89 107 85 122 c 1,94,95
 76 122 76 122 66 124 c 0,96,97
 65 124 65 124 62 125 c 1,98,99
 63 119 63 119 65 115 c 0,100,101
 70 98 70 98 84 78 c 0,102,103
 97 60 97 60 105.5 49.5 c 128,-1,104
 114 39 114 39 129 22 c 1,105,106
 121 16 121 16 116 5 c 1,107,108
 96 14 96 14 75 42 c 0,109,110
 53 71 53 71 39 105 c 0,111,112
 25 139 25 139 25 166 c 2,113,-1
 25 168 l 1,114,115
 45 152 45 152 80 147 c 1,116,117
 80 151 80 151 80 160 c 0,118,119
 80 184 80 184 88 209 c 0,120,121
 100 242 100 242 127 270 c 0,122,123
 144 289 144 289 169 303 c 0,124,125
 191 315 191 315 210 320 c 128,-1,126
 229 325 229 325 248 325 c 0,127,128
 254 325 254 325 263 325 c 0,129,130
 266 325 266 325 270 325 c 128,-1,131
 274 325 274 325 275 325 c 0,132,133
 276 325 276 325 280.5 324 c 128,-1,134
 285 323 285 323 286 323 c 1,0,1
EndSplineSet
EndChar

StartChar: uniE01F
Encoding: 57375 57375 35
Width: 319
GlyphClass: 2
Flags: W
LayerCount: 2
Fore
SplineSet
32 273 m 1,0,1
 43 267 43 267 51 254 c 0,2,3
 59 242 59 242 60 228 c 1,4,5
 79 238 79 238 103 239 c 2,6,-1
 108 239 l 2,7,8
 130 239 130 239 148 233 c 0,9,10
 167 228 167 228 182 221 c 0,11,12
 196 215 196 215 202 212 c 1,13,-1
 189 186 l 1,14,15
 167 200 167 200 146 206 c 0,16,17
 129 210 129 210 113 211 c 0,18,19
 110 211 110 211 103 210 c 0,20,21
 85 209 85 209 65 204 c 0,22,23
 46 198 46 198 29 191 c 1,24,25
 29 191 29 191 30 191 c 1,26,-1
 29 191 l 1,27,28
 37 207 37 207 38 230 c 2,29,-1
 38 233 l 2,30,31
 38 255 38 255 32 273 c 1,0,1
25 167 m 1,32,33
 71 193 71 193 112 193 c 0,34,35
 138 193 138 193 160 183 c 0,36,37
 202 166 202 166 222 126 c 0,38,39
 234 103 234 103 237 81 c 1,40,-1
 240 87 l 2,41,42
 251 113 251 113 263 153 c 256,43,44
 275 193 275 193 278 229 c 0,45,46
 279 240 279 240 279 246 c 0,47,48
 279 272 279 272 272 298 c 0,49,50
 264 331 264 331 245 365 c 0,51,52
 226 397 226 397 193 423 c 256,53,54
 161 449 161 449 119 463 c 1,55,-1
 123 500 l 1,56,57
 143 496 143 496 165 482 c 0,58,59
 190 468 190 468 215 444 c 0,60,61
 239 422 239 422 261 391 c 0,62,63
 283 361 283 361 296 323 c 0,64,65
 309 284 309 284 309 244 c 2,66,-1
 309 242 l 2,67,68
 308 225 308 225 308 211 c 0,69,70
 308 205 308 205 305 176 c 0,71,72
 301 152 301 152 298 140 c 0,73,74
 294 123 294 123 285 104 c 0,75,76
 277 84 277 84 266 68 c 0,77,78
 256 52 256 52 238 33 c 128,-1,79
 220 14 220 14 201 0 c 1,80,81
 208 24 208 24 208 45 c 0,82,83
 208 56 208 56 206 67 c 0,84,85
 201 102 201 102 181 128 c 0,86,87
 162 156 162 156 123 169 c 0,88,89
 103 174 103 174 82 173 c 0,90,91
 57 173 57 173 25 167 c 1,32,33
EndSplineSet
EndChar

StartChar: uniE020
Encoding: 57376 57376 36
Width: 327
GlyphClass: 2
Flags: W
LayerCount: 2
Fore
SplineSet
55 244 m 1,0,-1
 25 246 l 1,1,2
 33 294 33 294 54 340 c 0,3,4
 76 386 76 386 106 427 c 1,5,6
 119 419 119 419 135 411 c 0,7,8
 144 407 144 407 154 402 c 1,9,10
 161 411 161 411 175 427 c 0,11,12
 209 464 209 464 258 500 c 1,13,-1
 280 471 l 1,14,15
 231 439 231 439 191 392 c 1,16,17
 193 392 193 392 196.5 391 c 128,-1,18
 200 390 200 390 201 390 c 0,19,20
 203 390 203 390 206.5 390 c 128,-1,21
 210 390 210 390 212 390 c 0,22,23
 223 390 223 390 238 392 c 0,24,25
 260 395 260 395 280 404 c 1,26,27
 245 370 245 370 193 371 c 0,28,29
 185 371 185 371 175 372 c 1,30,31
 132 313 132 313 112 249 c 0,32,33
 95 196 95 196 94 150 c 0,34,35
 94 138 94 138 95 130 c 0,36,37
 98 87 98 87 118 60 c 0,38,39
 136 34 136 34 169 33 c 2,40,-1
 173 33 l 2,41,42
 188 33 188 33 203 37 c 0,43,44
 222 41 222 41 241 51 c 0,45,46
 260 61 260 61 281 82 c 0,47,48
 301 102 301 102 318 129 c 1,49,50
 301 71 301 71 256 35 c 0,51,52
 212 0 212 0 165 0 c 2,53,-1
 162 0 l 2,54,55
 118 1 118 1 89 35 c 0,56,57
 60 69 60 69 57 135 c 0,58,59
 57 139 57 139 57 148 c 0,60,61
 57 175 57 175 61 202 c 0,62,63
 66 236 66 236 81 275 c 0,64,65
 95 315 95 315 117 351 c 0,66,67
 125 364 125 364 136 380 c 1,68,69
 133 381 133 381 115 386 c 1,70,71
 69 320 69 320 55 244 c 1,0,-1
EndSplineSet
EndChar

StartChar: uniE021
Encoding: 57377 57377 37
Width: 312
GlyphClass: 2
Flags: W
LayerCount: 2
Fore
SplineSet
25 469 m 1,0,-1
 25 500 l 1,1,2
 69 500 69 500 111 488 c 0,3,4
 150 478 150 478 181 459 c 0,5,6
 199 448 199 448 212 435 c 1,7,8
 225 444 225 444 234 450 c 0,9,10
 256 462 256 462 274 463 c 0,11,12
 279 463 279 463 284 462 c 1,13,14
 251 447 251 447 228 420 c 1,15,16
 233 414 233 414 234 413 c 0,17,18
 258 387 258 387 272 356 c 0,19,20
 286 325 286 325 294 292 c 0,21,22
 302 257 302 257 302 224 c 0,23,24
 302 192 302 192 295 158 c 0,25,26
 288 125 288 125 274 95 c 0,27,28
 261 66 261 66 240 41 c 0,29,30
 220 17 220 17 193 0 c 1,31,32
 221 26 221 26 239 59 c 0,33,34
 258 94 258 94 266 130 c 0,35,36
 276 171 276 171 274 201 c 0,37,38
 274 205 274 205 274 208 c 0,39,40
 274 246 274 246 263 285 c 0,41,42
 253 324 253 324 233 355 c 0,43,44
 221 374 221 374 207 389 c 1,45,46
 193 365 193 365 183 334 c 1,47,48
 182 335 182 335 176 340 c 0,49,50
 171 345 171 345 167 349 c 0,51,52
 164 352 164 352 161 355 c 0,53,54
 157 358 157 358 155 360 c 256,55,56
 153 362 153 362 151 364 c 0,57,58
 145 369 145 369 136 376 c 0,59,60
 124 385 124 385 120 388 c 2,61,-1
 101 397 l 2,62,63
 95 400 95 400 80 406 c 0,64,65
 74 408 74 408 55 411 c 0,66,67
 42 413 42 413 25 414 c 1,68,-1
 25 444 l 1,69,70
 60 442 60 442 85 436 c 0,71,72
 110 430 110 430 129 420 c 0,73,74
 142 413 142 413 156 404 c 0,75,76
 163 399 163 399 169 393 c 1,77,78
 174 400 174 400 184 412 c 1,79,-1
 185 412 l 1,80,81
 185 412 185 412 184 413 c 128,-1,82
 183 414 183 414 183 414 c 0,83,84
 154 439 154 439 114 454 c 0,85,86
 72 469 72 469 25 469 c 1,0,-1
EndSplineSet
EndChar

StartChar: uniE022
Encoding: 57378 57378 38
Width: 368
GlyphClass: 2
Flags: W
LayerCount: 2
Fore
SplineSet
25 0 m 1,0,-1
 25 2 l 2,1,2
 25 46 25 46 37 79 c 0,3,4
 49 114 49 114 70 134 c 0,5,6
 90 154 90 154 115 165 c 0,7,8
 139 175 139 175 165 176 c 2,9,-1
 171 176 l 2,10,11
 206 176 206 176 238 158 c 0,12,13
 268 141 268 141 290 108 c 1,14,15
 240 341 240 341 45 483 c 1,16,-1
 46 483 l 2,17,18
 69 483 69 483 98 468 c 0,19,20
 100 467 100 467 107 465.5 c 128,-1,21
 114 464 114 464 118 462 c 0,22,23
 138 457 138 457 146 456 c 2,24,-1
 147 456 l 1,25,26
 124 478 124 478 99 500 c 1,27,28
 114 498 114 498 127 493 c 0,29,30
 134 492 134 492 145 489 c 0,31,32
 202 481 202 481 260 481 c 0,33,34
 294 481 294 481 304 483 c 1,35,36
 302 477 302 477 282 471 c 0,37,38
 259 465 259 465 234 463 c 0,39,40
 215 461 215 461 200 461 c 0,41,42
 192 461 192 461 187 461 c 0,43,44
 186 461 186 461 184 461 c 128,-1,45
 182 461 182 461 182 461 c 1,46,47
 189 456 189 456 196 450 c 1,48,49
 200 450 200 450 208 450 c 2,50,-1
 244 450 l 2,51,52
 264 450 264 450 286 452 c 0,53,54
 319 456 319 456 332 458 c 1,55,56
 310 443 310 443 270 433 c 0,57,58
 243 427 243 427 221 426 c 1,59,60
 249 397 249 397 273 360 c 0,61,62
 298 323 298 323 315 282 c 0,63,64
 333 239 333 239 345 196 c 0,65,66
 358 151 358 151 359 108 c 0,67,68
 359 103 359 103 359 91 c 0,69,70
 359 57 359 57 354 24 c 1,71,72
 350 99 350 99 330 168 c 0,73,74
 311 235 311 235 276 294 c 0,75,76
 241 352 241 352 199 401 c 0,77,78
 179 424 179 424 178 424 c 0,79,80
 164 425 164 425 157 426 c 1,81,82
 157 426 157 426 169 415 c 0,83,84
 203 383 203 383 233 337 c 0,85,86
 263 294 263 294 288 241 c 0,87,88
 312 190 312 190 321 131 c 0,89,90
 328 95 328 95 328 58 c 0,91,92
 328 35 328 35 326 15 c 1,93,94
 298 62 298 62 268 92 c 0,95,96
 237 123 237 123 210 135 c 0,97,98
 187 146 187 146 163 146 c 0,99,100
 162 146 162 146 158.5 145.5 c 128,-1,101
 155 145 155 145 153 145 c 0,102,103
 124 142 124 142 101 126 c 0,104,105
 77 109 77 109 57 76 c 0,106,107
 37 43 37 43 25 0 c 1,0,-1
EndSplineSet
EndChar

StartChar: uniE023
Encoding: 57379 57379 39
Width: 556
GlyphClass: 2
Flags: W
LayerCount: 2
Fore
SplineSet
422 493 m 1,0,-1
 459 493 l 1,1,2
 459 479 459 479 459 471 c 1,3,4
 509 472 509 472 545 479 c 1,5,6
 534 466 534 466 487 455 c 0,7,8
 475 452 475 452 459 449 c 1,9,10
 458 405 458 405 455 372 c 0,11,12
 452 320 452 320 445 273 c 0,13,14
 440 232 440 232 429 195 c 0,15,16
 419 157 419 157 410 134 c 0,17,18
 401 109 401 109 386 88 c 0,19,20
 371 65 371 65 359 54 c 0,21,22
 348 42 348 42 331 30 c 0,23,24
 316 20 316 20 300 12 c 0,25,26
 287 6 287 6 269 0 c 1,27,28
 269 3 269 3 269 9 c 128,-1,29
 269 15 269 15 269 19 c 0,30,31
 269 36 269 36 268 54 c 0,32,33
 267 86 267 86 262 126 c 0,34,35
 257 172 257 172 250 207 c 0,36,37
 243 243 243 243 228 289 c 0,38,39
 214 330 214 330 195 365 c 0,40,41
 176 399 176 399 146 427 c 0,42,43
 127 446 127 446 105 457 c 1,44,45
 103 453 103 453 99 447 c 0,46,47
 93 436 93 436 85 424 c 0,48,49
 76 412 76 412 61 403 c 0,50,51
 46 394 46 394 25 391 c 1,52,53
 43 406 43 406 57 426 c 0,54,55
 70 444 70 444 78 458 c 0,56,57
 83 472 83 472 87 485 c 0,58,59
 91 498 91 498 92 500 c 1,60,61
 92 500 92 500 93.5 499.5 c 128,-1,62
 95 499 95 499 98 498 c 2,63,-1
 104 496 l 2,64,65
 118 491 118 491 122 487 c 0,66,67
 128 485 128 485 144 476 c 0,68,69
 160 466 160 466 171 457 c 0,70,71
 182 447 182 447 197 429 c 0,72,73
 211 414 211 414 224 391 c 0,74,75
 235 372 235 372 249 341 c 0,76,77
 262 312 262 312 271 276 c 0,78,79
 279 244 279 244 289 197 c 0,80,81
 297 151 297 151 300 98 c 0,82,83
 301 91 301 91 304 62 c 0,84,85
 304 56 304 56 305 52 c 1,86,-1
 306 53 l 1,87,88
 332 78 332 78 352 113 c 0,89,90
 372 146 372 146 385 182 c 0,91,92
 396 214 396 214 407 259 c 0,93,94
 416 303 416 303 419 340 c 0,95,96
 422 375 422 375 424 419 c 0,97,98
 424 428 424 428 424 445 c 2,99,-1
 424 445 l 1,100,-1
 420 445 l 2,101,102
 415 445 415 445 402 446 c 1,103,104
 403 414 403 414 403 402 c 0,105,106
 403 352 403 352 396 311 c 1,107,-1
 366 311 l 1,108,109
 374 355 374 355 374 413 c 0,110,111
 374 443 374 443 372 476 c 1,112,113
 384 471 384 471 424 470 c 1,114,115
 423 486 423 486 422 493 c 1,0,-1
EndSplineSet
EndChar

StartChar: uniE024
Encoding: 57380 57380 40
Width: 461
GlyphClass: 2
Flags: W
LayerCount: 2
Fore
SplineSet
255 0 m 1,0,-1
 255 7 l 2,1,2
 255 70 255 70 249 125 c 0,3,4
 243 183 243 183 232.5 226.5 c 128,-1,5
 222 270 222 270 208 307 c 0,6,7
 195 345 195 345 178 369 c 0,8,9
 162 396 162 396 145 413 c 0,10,11
 143 415 143 415 132 426 c 1,12,-1
 132 426 l 1,13,14
 119 411 119 411 108 400 c 0,15,16
 96 389 96 389 82 381 c 0,17,18
 67 373 67 373 52 372 c 1,19,20
 84 397 84 397 110 430 c 0,21,22
 112 432 112 432 116 437 c 1,23,24
 115 438 115 438 112 440 c 0,25,26
 108 442 108 442 103 445 c 1,27,28
 96 433 96 433 91 427 c 0,29,30
 82 412 82 412 63 398 c 0,31,32
 45 384 45 384 25 384 c 1,33,34
 37 389 37 389 48 398 c 0,35,36
 59 409 59 409 63 416 c 0,37,38
 68 424 68 424 75 439 c 0,39,40
 81 455 81 455 82 462 c 0,41,42
 83 465 83 465 87 485 c 1,43,44
 111 480 111 480 133 466 c 1,45,46
 142 483 142 483 148 500 c 1,47,48
 181 489 181 489 210 459 c 0,49,50
 238 429 238 429 264 386 c 1,51,-1
 242 370 l 1,52,53
 231 400 231 400 201 431 c 0,54,55
 181 453 181 453 161 466 c 1,56,57
 159 461 159 461 152 453 c 1,58,59
 156 450 156 450 163 443 c 0,60,61
 197 411 197 411 221 365 c 0,62,63
 244 322 244 322 261 264 c 0,64,65
 278 208 278 208 286 152 c 0,66,67
 293 102 293 102 294 54 c 1,68,69
 326 85 326 85 348 120 c 0,70,71
 373 161 373 161 384 201 c 0,72,73
 397 244 397 244 403 288 c 0,74,75
 410 332 410 332 410 382 c 0,76,77
 410 392 410 392 410 414 c 0,78,79
 410 424 410 424 410 447 c 128,-1,80
 410 470 410 470 410 482 c 1,81,-1
 451 482 l 1,82,83
 451 428 451 428 447 386 c 0,84,85
 445 346 445 346 439 296 c 0,86,87
 433 249 433 249 423 212 c 0,88,89
 413 173 413 173 398 138 c 0,90,91
 384 103 384 103 364 77 c 0,92,93
 345 51 345 51 316 30 c 0,94,95
 290 10 290 10 255 0 c 1,0,-1
EndSplineSet
EndChar

StartChar: uniE025
Encoding: 57381 57381 41
Width: 367
GlyphClass: 2
Flags: W
LayerCount: 2
Fore
SplineSet
221 408 m 1,0,1
 205 393 205 393 193 375 c 0,2,3
 161 335 161 335 141 284 c 0,4,5
 128 246 128 246 128 210 c 0,6,7
 128 197 128 197 128 186 c 0,8,9
 136 118 136 118 163 76 c 0,10,11
 189 33 189 33 217 33 c 2,12,-1
 218 33 l 2,13,14
 244 33 244 33 266 56 c 0,15,16
 289 78 289 78 303 113 c 256,17,18
 317 148 317 148 317 180 c 2,19,-1
 317 185 l 2,20,21
 317 223 317 223 308 260 c 0,22,23
 298 300 298 300 283 328 c 0,24,25
 266 359 266 359 246 381 c 0,26,27
 235 394 235 394 221 408 c 1,0,1
357 482 m 1,28,29
 312 474 312 474 268 445 c 0,30,31
 262 441 262 441 250 432 c 1,32,33
 282 403 282 403 305 364 c 0,34,35
 350 289 350 289 355 200 c 0,36,37
 355 194 355 194 355 182 c 0,38,39
 355 109 355 109 326 61 c 0,40,41
 289 2 289 2 220 0 c 2,42,-1
 218 0 l 2,43,44
 203 0 203 0 187 6 c 0,45,46
 170 12 170 12 153 29 c 0,47,48
 135 46 135 46 123 70 c 0,49,50
 110 95 110 95 102 133 c 0,51,52
 97 165 97 165 96 199 c 0,53,54
 96 206 96 206 97 222 c 0,55,56
 99 268 99 268 123 315 c 0,57,58
 147 362 147 362 181 397 c 0,59,60
 193 409 193 409 206 421 c 1,61,-1
 205 422 l 1,62,63
 182 440 182 440 167 449 c 0,64,65
 152 458 152 458 136 463 c 0,66,67
 124 466 124 466 123 464 c 0,68,69
 79 407 79 407 25 407 c 1,70,71
 48 420 48 420 62 432 c 0,72,73
 76 444 76 444 84 459 c 0,74,75
 90 471 90 471 94 478 c 0,76,77
 96 485 96 485 98 498 c 0,78,79
 98 498 98 498 99 499 c 0,80,81
 99 499 99 499 99 500 c 0,82,83
 136 496 136 496 168 483 c 0,84,85
 206 468 206 468 238 442 c 1,86,87
 250 450 250 450 263 457 c 0,88,89
 312 481 312 481 357 482 c 1,28,29
EndSplineSet
EndChar

StartChar: uniE026
Encoding: 57382 57382 42
Width: 366
GlyphClass: 2
Flags: W
LayerCount: 2
Fore
SplineSet
37 467 m 1,0,-1
 48 500 l 1,1,2
 83 485 83 485 111 465 c 0,3,4
 138 446 138 446 157 427 c 0,5,6
 173 409 173 409 187 384 c 0,7,8
 201 357 201 357 206 339 c 0,9,10
 212 321 212 321 217 294 c 0,11,12
 222 265 222 265 223 231 c 0,13,14
 222 197 222 197 217 170 c 0,15,16
 212 140 212 140 201 112 c 0,17,18
 189 82 189 82 171 61 c 0,19,20
 159 46 159 46 144 34 c 1,21,22
 216 72 216 72 271 126 c 0,23,24
 331 184 331 184 356 241 c 1,25,26
 355 228 355 228 349 210 c 0,27,28
 344 193 344 193 333 169 c 0,29,30
 323 147 323 147 307 125 c 0,31,32
 293 103 293 103 269 81 c 0,33,34
 247 59 247 59 218 42 c 0,35,36
 188 25 188 25 152 13 c 0,37,38
 114 2 114 2 71 0 c 1,39,40
 109 29 109 29 132 57 c 0,41,42
 158 87 158 87 170 114 c 0,43,44
 182 143 182 143 187 163 c 0,45,46
 192 185 192 185 193 205 c 2,47,-1
 193 209 l 2,48,49
 193 251 193 251 184 286 c 0,50,51
 177 324 177 324 164 350 c 256,52,53
 151 377 151 377 135 397 c 0,54,55
 119 419 119 419 103 431 c 0,56,57
 89 442 89 442 73 452 c 0,58,59
 60 460 60 460 49 463 c 0,60,61
 41 467 41 467 37 467 c 1,0,-1
25 421 m 1,62,-1
 35 451 l 1,63,64
 57 441 57 441 76 427 c 0,65,66
 94 414 94 414 112 397 c 0,67,68
 130 379 130 379 141.5 359.5 c 128,-1,69
 153 340 153 340 161 311 c 0,70,71
 168 284 168 284 168 250 c 1,72,73
 160 251 160 251 143 252 c 0,74,75
 135 252 135 252 122 251 c 0,76,77
 112 250 112 250 104 248 c 0,78,79
 95 246 95 246 89 243 c 0,80,81
 83 241 83 241 77 237 c 0,82,83
 71 233 71 233 68 230 c 0,84,85
 66 228 66 228 59 222 c 0,86,87
 57 220 57 220 55 217 c 2,88,-1
 53 214 l 2,89,90
 52 213 52 213 50 210.5 c 128,-1,91
 48 208 48 208 47 207 c 1,92,93
 50 224 50 224 61 238 c 0,94,95
 73 252 73 252 86 260 c 0,96,97
 101 269 101 269 113 273 c 0,98,99
 123 277 123 277 136 282 c 1,100,-1
 137 282 l 1,101,102
 137 282 137 282 137 282 c 1,103,104
 133 308 133 308 124 329 c 0,105,106
 114 353 114 353 98 370 c 0,107,108
 83 388 83 388 66 399 c 0,109,110
 48 412 48 412 25 421 c 1,62,-1
EndSplineSet
EndChar

StartChar: uniE027
Encoding: 57383 57383 43
Width: 337
GlyphClass: 2
Flags: W
LayerCount: 2
Fore
SplineSet
322 463 m 1,0,1
 284 458 284 458 254 456 c 0,2,3
 238 455 238 455 221.5 454.5 c 128,-1,4
 205 454 205 454 188 456 c 0,5,6
 155 458 155 458 135 469 c 0,7,8
 135 470 135 470 134 469 c 1,9,10
 135 465 135 465 135 462 c 0,11,12
 135 461 135 461 135 457 c 0,13,14
 135 452 135 452 135 449 c 1,15,16
 184 438 184 438 234 438 c 0,17,18
 279 438 279 438 329 446 c 1,19,20
 312 434 312 434 278 425 c 0,21,22
 242 416 242 416 207 414 c 0,23,24
 195 413 195 413 188 413 c 0,25,26
 170 413 170 413 156 415 c 1,27,28
 160 412 160 412 163 409 c 0,29,30
 183 392 183 392 206 366 c 0,31,32
 228 343 228 343 242 317 c 0,33,34
 256 294 256 294 271 266 c 0,35,36
 285 238 285 238 294 213 c 0,37,38
 303 183 303 183 309 160 c 0,39,40
 315 134 315 134 319 109 c 0,41,42
 322 75 322 75 323 60 c 0,43,44
 323 58 323 58 323 54 c 128,-1,45
 323 50 323 50 323 49 c 0,46,47
 323 35 323 35 321 17 c 1,48,49
 306 49 306 49 284 75 c 0,50,51
 261 102 261 102 242 115 c 0,52,53
 223 128 223 128 202 137 c 0,54,55
 184 144 184 144 167 145 c 2,56,-1
 165 145 l 2,57,58
 145 145 145 145 125 136 c 0,59,60
 105 127 105 127 89 112 c 0,61,62
 75 99 75 99 60 77 c 0,63,64
 49 60 49 60 41 39 c 0,65,66
 34 19 34 19 31 0 c 1,67,68
 25 19 25 19 25 38 c 0,69,70
 25 42 25 42 26 50 c 0,71,72
 28 75 28 75 42 97 c 0,73,74
 55 120 55 120 75 138 c 0,75,76
 94 155 94 155 119 166 c 0,77,78
 144 176 144 176 169 175 c 0,79,80
 204 175 204 175 237 158 c 0,81,82
 269 142 269 142 292 106 c 1,83,84
 289 115 289 115 287 127 c 0,85,86
 280 155 280 155 268 185 c 0,87,88
 258 217 258 217 242 250 c 0,89,90
 224 286 224 286 201 317 c 0,91,92
 177 353 177 353 139 394 c 0,93,94
 133 400 133 400 122 412 c 1,95,96
 116 403 116 403 105 393 c 0,97,98
 83 373 83 373 53 357 c 1,99,100
 65 368 65 368 76 381 c 0,101,102
 85 391 85 391 93 401 c 0,103,104
 100 411 100 411 105 423 c 0,105,106
 105 423 105 423 105.5 424.5 c 128,-1,107
 106 426 106 426 106 426 c 1,108,109
 83 449 83 449 52 475 c 1,110,111
 62 471 62 471 68 469 c 0,112,113
 92 459 92 459 114 454 c 1,114,115
 115 463 115 463 115 468 c 2,116,-1
 115 470 l 2,117,118
 114 484 114 484 112 500 c 1,119,120
 112 500 112 500 112 500 c 2,121,-1
 113 500 l 1,122,-1
 113 500 l 1,123,124
 171 476 171 476 240 476 c 0,125,126
 280 476 280 476 322 484 c 1,127,-1
 322 463 l 1,0,1
EndSplineSet
EndChar

StartChar: uniE028
Encoding: 57384 57384 44
Width: 238
GlyphClass: 2
Flags: W
LayerCount: 2
Fore
SplineSet
30 472 m 1,0,-1
 43 500 l 1,1,2
 101 457 101 457 132 395 c 0,3,4
 158 343 158 343 159 257 c 0,5,6
 159 68 159 68 25 0 c 1,7,8
 90 47 90 47 109 133 c 0,9,10
 124 206 124 206 124 258 c 2,11,-1
 124 264 l 2,12,13
 123 413 123 413 30 472 c 1,0,-1
EndSplineSet
EndChar

StartChar: uniE029
Encoding: 57385 57385 45
Width: 523
GlyphClass: 2
Flags: W
LayerCount: 2
Fore
SplineSet
330 413 m 1,0,1
 248 345 248 345 140 345 c 0,2,3
 134 345 134 345 123 345.5 c 128,-1,4
 112 346 112 346 106 346 c 1,5,6
 118 301 118 301 139.5 267 c 128,-1,7
 161 233 161 233 187.5 213.5 c 128,-1,8
 214 194 214 194 244 184.5 c 128,-1,9
 274 175 274 175 308 175 c 0,10,11
 398 175 398 175 498 234 c 1,12,13
 370 119 370 119 260 119 c 0,14,15
 223 119 223 119 189 132.5 c 128,-1,16
 155 146 155 146 129.5 169.5 c 128,-1,17
 104 193 104 193 83 223.5 c 128,-1,18
 62 254 62 254 49 287.5 c 128,-1,19
 36 321 36 321 29 355 c 128,-1,20
 22 389 22 389 22 421 c 0,21,22
 22 439 22 439 24 453 c 1,23,24
 114 393 114 393 210 393 c 0,25,26
 264 394 264 394 330 413 c 1,0,1
EndSplineSet
EndChar

StartChar: uniE02A
Encoding: 57386 57386 46
Width: 333
GlyphClass: 2
Flags: W
LayerCount: 2
Fore
SplineSet
164 419 m 1,0,1
 165 419 165 419 167 419 c 128,-1,2
 169 419 169 419 170 419 c 0,3,4
 198 419 198 419 225.5 426 c 128,-1,5
 253 433 253 433 270 446 c 1,6,7
 266 434 266 434 247.5 423.5 c 128,-1,8
 229 413 229 413 206 406 c 1,9,10
 235 374 235 374 252 331.5 c 128,-1,11
 269 289 269 289 269 252 c 0,12,13
 269 234 269 234 265 219 c 1,14,15
 265 309 265 309 164 419 c 1,0,1
25 500 m 1,16,17
 69 474 69 474 121 459.5 c 128,-1,18
 173 445 173 445 219 445 c 0,19,20
 223 445 223 445 230.5 445.5 c 128,-1,21
 238 446 238 446 242 446 c 1,22,23
 238 440 238 440 217.5 436 c 128,-1,24
 197 432 197 432 172 432 c 0,25,26
 138 432 138 432 123 439 c 1,27,28
 158 405 158 405 184 370 c 128,-1,29
 210 335 210 335 225.5 301.5 c 128,-1,30
 241 268 241 268 250.5 231.5 c 128,-1,31
 260 195 260 195 263.5 163 c 128,-1,32
 267 131 267 131 267 96 c 0,33,34
 267 80 267 80 264.5 47.5 c 128,-1,35
 262 15 262 15 262 0 c 1,36,37
 262 151 262 151 200 276.5 c 128,-1,38
 138 402 138 402 25 500 c 1,16,17
EndSplineSet
EndChar
